<svg id="call" viewBox="0 0 20 20" fill="none" xmlns="http://www.w3.org/2000/svg">
    <path d="M4.6582 2.16669C4.82146 2.16669 4.98068 2.20178 5.11719 2.26727L5.12402 2.2702C5.26636 2.3359 5.38546 2.43086 5.48047 2.56805L5.48438 2.57294L7.41797 5.29755L7.41992 5.30048C7.55175 5.48359 7.63905 5.64103 7.69629 5.78094L7.69922 5.78876C7.75468 5.91822 7.77539 6.02581 7.77539 6.10028C7.77534 6.19954 7.7466 6.31014 7.67285 6.43134L7.66895 6.43817L7.66504 6.44598C7.58467 6.58811 7.45736 6.75225 7.28027 6.92938L7.27344 6.93719L6.63965 7.5954C6.45149 7.78729 6.36719 8.02367 6.36719 8.27509C6.36719 8.38898 6.3824 8.4882 6.40723 8.58759L6.41406 8.61591L6.42383 8.64227C6.44061 8.68701 6.45744 8.72626 6.46777 8.75067C6.47979 8.77908 6.48308 8.78779 6.48438 8.79169L6.49805 8.83368L6.51953 8.87274C6.69314 9.19103 6.9761 9.57939 7.35156 10.0231L7.35547 10.027C7.73554 10.4662 8.14271 10.9161 8.58496 11.3669L8.58887 11.3698C8.63559 11.4165 8.68363 11.4627 8.72656 11.5036C8.77101 11.5459 8.81016 11.5833 8.84668 11.6198L8.85156 11.6247C8.98752 11.7574 8.98951 11.9711 8.85547 12.1052L7.31348 13.6462C7.18612 13.7735 6.98088 13.7807 6.83887 13.6481C6.79064 13.6001 6.74334 13.5546 6.7002 13.5134L6.57031 13.3884C5.73021 12.5399 4.9724 11.652 4.29688 10.7243H4.29785C3.63221 9.79886 3.10177 8.88088 2.71875 7.97919C2.3483 7.07909 2.16699 6.23734 2.16699 5.44989C2.16701 4.94253 2.25684 4.46403 2.43164 4.02704L2.43262 4.02509C2.60402 3.58944 2.87713 3.18345 3.26855 2.81415L3.27637 2.80634C3.73403 2.35588 4.19632 2.16681 4.6582 2.16669Z" fill="#F7A039" stroke="#F7A039"/>
    <path d="M18.3083 15.275C18.3083 15.5083 18.2667 15.75 18.1833 15.9833C18.1583 16.05 18.1333 16.1167 18.1 16.1833C17.9583 16.4833 17.775 16.7667 17.5333 17.0333C17.125 17.4833 16.675 17.8083 16.1667 18.0167C16.1583 18.0167 16.15 18.025 16.1417 18.025C15.65 18.225 15.1167 18.3333 14.5417 18.3333C13.6917 18.3333 12.7833 18.1333 11.825 17.725C10.8667 17.3167 9.90833 16.7667 8.95833 16.075C8.63333 15.8333 8.30833 15.5917 8 15.3333L10.725 12.6083C10.9583 12.7833 11.1667 12.9167 11.3417 13.0083C11.3833 13.025 11.4333 13.05 11.4917 13.075C11.5583 13.1 11.625 13.1083 11.7 13.1083C11.8417 13.1083 11.95 13.0583 12.0417 12.9667L12.675 12.3417C12.8833 12.1333 13.0833 11.975 13.275 11.875C13.4667 11.7583 13.6583 11.7 13.8667 11.7C14.025 11.7 14.1917 11.7333 14.375 11.8083C14.5583 11.8833 14.75 11.9917 14.9583 12.1333L17.7167 14.0917C17.9333 14.2417 18.0833 14.4167 18.175 14.625C18.2583 14.8333 18.3083 15.0417 18.3083 15.275Z" fill="#F7A039"/>
</svg>