<svg id="chevron-left" viewBox="0 0 24 24" xmlns="http://www.w3.org/2000/svg">
    <path d="M13.4695 5.46959C13.7624 5.17685 14.2372 5.17675 14.53 5.46959C14.8227 5.76245 14.8227 6.23729 14.53 6.53014L10.7927 10.2674C10.3881 10.6721 10.1167 10.9445 9.92457 11.1708C9.73854 11.3899 9.67088 11.5166 9.63941 11.6131C9.55784 11.8642 9.55784 12.1355 9.63941 12.3866C9.67088 12.4832 9.73854 12.6098 9.92457 12.829C10.1167 13.0552 10.3881 13.3276 10.7927 13.7323L14.53 17.4696L14.5818 17.5262C14.8219 17.8208 14.8044 18.2556 14.53 18.5301C14.2555 18.8047 13.8207 18.8221 13.5261 18.5819L13.4695 18.5301L9.73218 14.7928C9.34501 14.4057 9.02198 14.0835 8.78101 13.7997C8.53443 13.5092 8.3296 13.2094 8.21265 12.8495C8.03328 12.2973 8.03328 11.7024 8.21265 11.1503C8.3296 10.7904 8.53443 10.4905 8.78101 10.2001C9.02198 9.91624 9.34501 9.59408 9.73218 9.2069L13.4695 5.46959Z"/>
</svg>