<svg id="chevron-right" viewBox="0 0 24 24" xmlns="http://www.w3.org/2000/svg">
    <path d="M9.46967 5.46967C9.76256 5.17678 10.2373 5.17678 10.5302 5.46967L14.2675 9.20697C14.6548 9.59422 14.9777 9.91628 15.2187 10.2001C15.4653 10.4906 15.6701 10.7904 15.7871 11.1503C15.9664 11.7025 15.9664 12.2974 15.7871 12.8496C15.6701 13.2095 15.4653 13.5092 15.2187 13.7997C14.9777 14.0836 14.6548 14.4057 14.2675 14.7929L10.5302 18.5302C10.2373 18.8231 9.76256 18.8231 9.46967 18.5302C9.17678 18.2373 9.17678 17.7626 9.46967 17.4697L13.207 13.7324C13.6117 13.3276 13.883 13.0553 14.0751 12.829C14.2612 12.6098 14.3288 12.4833 14.3603 12.3867C14.4419 12.1356 14.4419 11.8643 14.3603 11.6132C14.3288 11.5166 14.2612 11.3901 14.0751 11.1708C13.883 10.9445 13.6117 10.6723 13.207 10.2675L9.46967 6.53022C9.17678 6.23732 9.17678 5.76256 9.46967 5.46967Z"/>
</svg>