<svg id="colored_send" viewBox="0 0 20 20" fill="none" xmlns="http://www.w3.org/2000/svg">
    <path d="M7.49902 1.5415H12.499C14.7041 1.5415 16.1594 2.01442 17.0723 2.92725C17.9849 3.84004 18.458 5.29472 18.458 7.49951V12.4995C18.458 14.7046 17.9851 16.1599 17.0723 17.0728C16.1594 17.9856 14.7041 18.4585 12.499 18.4585H7.49902C5.29423 18.4584 3.83955 17.9854 2.92676 17.0728C2.01393 16.1599 1.54102 14.7046 1.54102 12.4995V7.49951C1.54106 5.29459 2.01397 3.84003 2.92676 2.92725C3.83954 2.01446 5.2941 1.54155 7.49902 1.5415ZM7.49902 1.7915C5.54308 1.79154 4.06778 2.13388 3.10059 3.10107C2.13339 4.06827 1.79105 5.54356 1.79102 7.49951V12.4995C1.79102 14.4554 2.13358 15.9307 3.10059 16.8979C4.06778 17.8651 5.54308 18.2085 7.49902 18.2085H12.499C14.4551 18.2085 15.9302 17.8652 16.8975 16.8979C17.8647 15.9307 18.208 14.4556 18.208 12.4995V7.49951C18.208 5.54356 17.8647 4.06827 16.8975 3.10107C15.9302 2.13407 14.4549 1.7915 12.499 1.7915H7.49902Z" fill="#292D32" stroke="#070707"/>
    <path d="M10 5.30225C10.0358 5.30228 10.0664 5.3159 10.0879 5.3374L12.5879 7.8374C12.6093 7.85892 12.623 7.88952 12.623 7.92529C12.623 7.96109 12.6094 7.99168 12.5879 8.01318C12.5734 8.0277 12.5596 8.03631 12.5469 8.0415C12.5336 8.04686 12.5176 8.05028 12.5 8.05029C12.4823 8.05029 12.4664 8.04687 12.4531 8.0415C12.4404 8.03633 12.4267 8.0277 12.4121 8.01318L10 5.60107L7.58789 8.01318C7.56639 8.03468 7.53579 8.04831 7.5 8.04834C7.46422 8.04834 7.43363 8.03463 7.41211 8.01318C7.39061 7.99168 7.37699 7.96109 7.37695 7.92529C7.37695 7.88944 7.39058 7.85893 7.41211 7.8374L9.91211 5.3374C9.93364 5.31587 9.96415 5.30225 10 5.30225Z" fill="#292D32" stroke="#070707"/>
    <path d="M10 5.2998C10.0301 5.2998 10.0613 5.31225 10.0869 5.33789C10.1126 5.36353 10.125 5.39466 10.125 5.4248V12.0918C10.1248 12.1612 10.0698 12.2168 10 12.2168C9.96992 12.2168 9.9387 12.2042 9.91309 12.1787C9.88753 12.1532 9.87509 12.1218 9.875 12.0918V5.4248C9.875 5.39466 9.88744 5.36353 9.91309 5.33789C9.93873 5.31225 9.96985 5.2998 10 5.2998Z" fill="#292D32" stroke="#070707"/>
    <path d="M10.0007 15.1916C8.24236 15.1916 6.47569 14.9083 4.80069 14.35C4.47569 14.2416 4.30069 13.8833 4.40902 13.5583C4.51735 13.2333 4.8757 13.05 5.2007 13.1666C8.3007 14.2 11.709 14.2 14.809 13.1666C15.134 13.0583 15.4924 13.2333 15.6007 13.5583C15.709 13.8833 15.534 14.2416 15.209 14.35C13.5257 14.9166 11.759 15.1916 10.0007 15.1916Z" fill="#292D32"/>
</svg>