<svg id="colored-category" viewBox="0 0 21 21" fill="none" xmlns="http://www.w3.org/2000/svg">
	<path opacity="0.4" d="M16.0585 2.1665H14.4752C12.6585 2.1665 11.7002 3.12484 11.7002 4.9415V6.52484C11.7002 8.3415 12.6585 9.29984 14.4752 9.29984H16.0585C17.8752 9.29984 18.8335 8.3415 18.8335 6.52484V4.9415C18.8335 3.12484 17.8752 2.1665 16.0585 2.1665Z" fill="#070707"/>
	<path opacity="0.4" d="M6.53366 11.6919H4.95033C3.12533 11.6919 2.16699 12.6502 2.16699 14.4669V16.0502C2.16699 17.8752 3.12533 18.8336 4.94199 18.8336H6.52533C8.34199 18.8336 9.30033 17.8752 9.30033 16.0586V14.4752C9.30866 12.6502 8.35033 11.6919 6.53366 11.6919Z" fill="#070707"/>
	<path d="M5.74199 9.3165C7.71641 9.3165 9.31699 7.71592 9.31699 5.7415C9.31699 3.76709 7.71641 2.1665 5.74199 2.1665C3.76757 2.1665 2.16699 3.76709 2.16699 5.7415C2.16699 7.71592 3.76757 9.3165 5.74199 9.3165Z" fill="#070707"/>
	<path d="M15.2586 18.8331C17.233 18.8331 18.8336 17.2325 18.8336 15.2581C18.8336 13.2837 17.233 11.6831 15.2586 11.6831C13.2842 11.6831 11.6836 13.2837 11.6836 15.2581C11.6836 17.2325 13.2842 18.8331 15.2586 18.8331Z" fill="#292D32"/>
</svg>