<svg id="colored_trash" viewBox="0 0 18 18" fill="none" xmlns="http://www.w3.org/2000/svg">
    <path d="M3.77148 4.27002C7.71586 3.86967 11.7219 4.02469 15.7539 4.42041H15.7549C15.7689 4.42184 15.7828 4.42827 15.7939 4.44189C15.8051 4.45575 15.8092 4.47218 15.8076 4.48877V4.49854C15.8067 4.5111 15.8014 4.52234 15.791 4.53174C15.7797 4.54195 15.7653 4.5473 15.751 4.54736H15.708C11.7322 4.15038 7.74686 3.99892 3.79004 4.3999L2.26172 4.54834C2.23881 4.55016 2.22138 4.54473 2.20898 4.53467C2.19666 4.5246 2.18748 4.51009 2.18555 4.48975C2.1834 4.46664 2.19074 4.45134 2.19922 4.44092C2.20809 4.43013 2.2209 4.42222 2.23926 4.42041L3.76953 4.27002H3.77148Z" fill="#B22B29" stroke="#B22B29"/>
    <path d="M8.01758 1.4375H9.9834C10.7563 1.43757 11.0703 1.66011 11.2236 1.85254C11.4047 2.07997 11.4631 2.3793 11.5225 2.74316V2.74609L11.6875 3.7207V3.72168C11.6903 3.73801 11.6868 3.75443 11.6768 3.76855C11.6666 3.78282 11.6552 3.78707 11.6484 3.78809L11.6387 3.79004C11.6224 3.79273 11.6058 3.78832 11.5918 3.77832C11.5779 3.76827 11.5733 3.75773 11.5723 3.75098L11.5713 3.74121L11.4062 2.7666H11.4053C11.3809 2.61496 11.3559 2.45385 11.3174 2.31738C11.2768 2.17368 11.207 1.99891 11.0566 1.85449C10.9037 1.70769 10.7203 1.6421 10.5498 1.60938C10.3854 1.57785 10.1948 1.57031 9.99023 1.57031H8.02539C7.82375 1.57032 7.6358 1.57607 7.47461 1.60449C7.30791 1.63394 7.12263 1.69501 6.9668 1.84082C6.8132 1.98459 6.74291 2.16015 6.70215 2.30273C6.68256 2.37126 6.66624 2.44669 6.65137 2.52441L6.61035 2.75586L6.43848 3.73047L6.43652 3.7373C6.43172 3.76692 6.40633 3.78983 6.37598 3.79004H6.36426C6.3518 3.78786 6.33627 3.77963 6.32422 3.7627C6.31838 3.75445 6.31501 3.74684 6.31348 3.74023V3.7207L6.47852 2.73828V2.7373C6.54191 2.35696 6.60129 2.06196 6.78027 1.84082C6.93141 1.65414 7.2429 1.43759 8.01758 1.4375Z" fill="#B22B29" stroke="#B22B29"/>
    <path d="M14.1445 6.79199C14.1624 6.79462 14.1773 6.80299 14.1875 6.81445C14.1978 6.82609 14.2024 6.84008 14.2012 6.85742V6.86035L13.7139 14.4102C13.6706 15.0243 13.6217 15.5278 13.3545 15.9014C13.1201 16.2288 12.6278 16.5624 11.4082 16.5625H6.59277C5.3729 16.5625 4.88091 16.2288 4.64648 15.9014C4.37953 15.5284 4.3294 15.026 4.28613 14.4131H4.28711L3.79883 6.86035V6.85645L3.80176 6.83789C3.80405 6.83113 3.80793 6.82389 3.81445 6.81641C3.8261 6.80316 3.84043 6.79471 3.85449 6.79199C3.87723 6.7921 3.89392 6.79962 3.90527 6.80957C3.91146 6.81501 3.91624 6.82174 3.91992 6.8291L3.92676 6.85449L4.41406 14.4023V14.4062C4.43396 14.6812 4.45318 14.9553 4.49902 15.1914C4.54591 15.4329 4.62986 15.6896 4.81641 15.9072C5.19354 16.3469 5.81913 16.4375 6.59277 16.4375H11.4082C12.1843 16.4375 12.8121 16.347 13.1895 15.9072C13.3766 15.6889 13.461 15.4315 13.5068 15.1895C13.5517 14.9529 13.5688 14.6784 13.5869 14.4033V14.4023L14.0742 6.85449C14.0753 6.83995 14.0816 6.8247 14.0967 6.81152C14.1106 6.79944 14.1274 6.79263 14.1445 6.79199Z" fill="#B22B29" stroke="#B22B29"/>
    <path d="M10.2455 12.9375H7.74805C7.44055 12.9375 7.18555 12.6825 7.18555 12.375C7.18555 12.0675 7.44055 11.8125 7.74805 11.8125H10.2455C10.553 11.8125 10.808 12.0675 10.808 12.375C10.808 12.6825 10.553 12.9375 10.2455 12.9375Z" fill="#B22B29"/>
    <path d="M10.875 9.9375H7.125C6.8175 9.9375 6.5625 9.6825 6.5625 9.375C6.5625 9.0675 6.8175 8.8125 7.125 8.8125H10.875C11.1825 8.8125 11.4375 9.0675 11.4375 9.375C11.4375 9.6825 11.1825 9.9375 10.875 9.9375Z" fill="#B22B29"/>
</svg>