<svg id="filled-car" viewBox="0 0 80 72" fill="none" xmlns="http://www.w3.org/2000/svg">
    <path d="M39.6664 43.3242H42.1664C44.9164 43.3242 47.1664 41.1867 47.1664 38.5742V14.8242H24.6664C20.9164 14.8242 17.6414 16.7954 15.9414 19.6929" stroke="#292D32" stroke-width="2" stroke-linecap="round" stroke-linejoin="round"/>
    <path d="M14.6665 50.4492C14.6665 54.3917 18.0165 57.5742 22.1665 57.5742H24.6665C24.6665 54.9617 26.9165 52.8242 29.6665 52.8242C32.4165 52.8242 34.6665 54.9617 34.6665 57.5742H44.6665C44.6665 54.9617 46.9165 52.8242 49.6665 52.8242C52.4165 52.8242 54.6665 54.9617 54.6665 57.5742H57.1665C61.3165 57.5742 64.6665 54.3917 64.6665 50.4492V43.3242H57.1665C55.7915 43.3242 54.6665 42.2555 54.6665 40.9492V33.8242C54.6665 32.518 55.7915 31.4492 57.1665 31.4492H60.3914L56.1165 24.348C55.2165 22.8755 53.5666 21.9492 51.7666 21.9492H47.1665V38.5742C47.1665 41.1867 44.9165 43.3242 42.1665 43.3242H39.6665" fill="#FBC40A"/>
    <path d="M14.6665 50.4492C14.6665 54.3917 18.0165 57.5742 22.1665 57.5742H24.6665C24.6665 54.9617 26.9165 52.8242 29.6665 52.8242C32.4165 52.8242 34.6665 54.9617 34.6665 57.5742H44.6665C44.6665 54.9617 46.9165 52.8242 49.6665 52.8242C52.4165 52.8242 54.6665 54.9617 54.6665 57.5742H57.1665C61.3165 57.5742 64.6665 54.3917 64.6665 50.4492V43.3242H57.1665C55.7915 43.3242 54.6665 42.2555 54.6665 40.9492V33.8242C54.6665 32.518 55.7915 31.4492 57.1665 31.4492H60.3914L56.1165 24.348C55.2165 22.8755 53.5666 21.9492 51.7666 21.9492H47.1665V38.5742C47.1665 41.1867 44.9165 43.3242 42.1665 43.3242H39.6665" stroke="#292D32" stroke-width="2" stroke-linecap="round" stroke-linejoin="round"/>
    <path d="M29.6665 62.3242C32.4279 62.3242 34.6665 60.1976 34.6665 57.5742C34.6665 54.9509 32.4279 52.8242 29.6665 52.8242C26.9051 52.8242 24.6665 54.9509 24.6665 57.5742C24.6665 60.1976 26.9051 62.3242 29.6665 62.3242Z" stroke="#292D32" stroke-width="2" stroke-linecap="round" stroke-linejoin="round"/>
    <path d="M49.6665 62.3242C52.4279 62.3242 54.6665 60.1976 54.6665 57.5742C54.6665 54.9509 52.4279 52.8242 49.6665 52.8242C46.9051 52.8242 44.6665 54.9509 44.6665 57.5742C44.6665 60.1976 46.9051 62.3242 49.6665 62.3242Z" stroke="#292D32" stroke-width="2" stroke-linecap="round" stroke-linejoin="round"/>
    <path d="M64.6665 38.5742V43.3242H57.1665C55.7915 43.3242 54.6665 42.2555 54.6665 40.9492V33.8242C54.6665 32.518 55.7915 31.4492 57.1665 31.4492H60.3914L64.6665 38.5742Z" stroke="#292D32" stroke-width="2" stroke-linecap="round" stroke-linejoin="round"/>
    <path d="M14.6665 29.0742H29.6665" stroke="#292D32" stroke-width="2" stroke-linecap="round" stroke-linejoin="round"/>
    <path d="M14.6665 36.1992H24.6665" stroke="#292D32" stroke-width="2" stroke-linecap="round" stroke-linejoin="round"/>
    <path d="M14.6665 43.3242H19.6665" stroke="#292D32" stroke-width="2" stroke-linecap="round" stroke-linejoin="round"/>
</svg>