<svg id="logo" viewBox="0 0 175 50" fill="none" xmlns="http://www.w3.org/2000/svg">
	<path fill-rule="evenodd" clip-rule="evenodd" d="M150.22 25C150.22 29.8234 154.137 33.7336 158.97 33.7336C161.212 33.7336 163.189 32.608 164.36 30.8865V33.3144H167.72V25C167.72 20.1766 163.802 16.2664 158.97 16.2664C154.137 16.2664 150.22 20.1766 150.22 25ZM164.36 25C164.36 27.9712 161.946 30.3799 158.97 30.3799C155.993 30.3799 153.58 27.9712 153.58 25C153.58 22.0288 155.993 19.6201 158.97 19.6201C161.946 19.6201 164.36 22.0288 164.36 25Z" fill="#030303"/>
	<path d="M135.8 9H139.16V23.4629H141.229C141.382 23.1391 141.586 22.8334 141.842 22.5575L147.28 16.6856H151.2L143.78 24.7158C143.632 24.8763 143.632 25.1237 143.78 25.2842L151.2 33.3144H147.28L141.842 27.4424C141.586 27.1666 141.382 26.8608 141.229 26.5371H139.16V33.3144H135.8V9Z" fill="#030303"/>
	<path d="M130.34 16.6856H133.7V33.3144H130.34V30.8865C129.169 32.608 127.192 33.7336 124.95 33.7336C120.118 33.7336 116.2 29.8234 116.2 25V16.6856H119.56V25C119.56 27.9712 121.973 30.3799 124.95 30.3799C127.927 30.3799 130.34 27.9712 130.34 25V16.6856Z" fill="#030303"/>
	<path fill-rule="evenodd" clip-rule="evenodd" d="M114.266 22.9041C114.269 22.9158 114.272 22.9273 114.275 22.9389C114.435 23.5998 114.52 24.29 114.52 25C114.52 29.8234 110.602 33.7336 105.77 33.7336C100.937 33.7336 97.0195 29.8234 97.0195 25C97.0195 20.6464 100.211 17.0369 104.386 16.3749C102.272 14.8367 99.3434 13.0053 97.5795 12.3537V9H113.26V12.3537H103.95C112.027 16.6181 113.681 20.6014 114.248 22.8327C114.254 22.8567 114.26 22.8805 114.266 22.9041ZM105.77 30.3799C108.746 30.3799 111.16 27.9712 111.16 25C111.16 22.0287 108.746 19.6201 105.77 19.6201C102.793 19.6201 100.38 22.0287 100.38 25C100.38 27.9712 102.793 30.3799 105.77 30.3799Z" fill="#030303"/>
	<path fill-rule="evenodd" clip-rule="evenodd" d="M95.0863 22.9041C95.0891 22.9158 95.092 22.9273 95.0948 22.9389C95.255 23.5998 95.3398 24.29 95.3398 25C95.3398 29.8234 91.4223 33.7336 86.5898 33.7336C81.7574 33.7336 77.8398 29.8234 77.8398 25C77.8398 20.6464 81.0313 17.0369 85.2065 16.3749C83.0923 14.8367 80.1637 13.0053 78.3998 12.3537V9H94.0798V12.3537H84.7698C92.8473 16.6181 94.5009 20.6014 95.0682 22.8327C95.0744 22.8567 95.0803 22.8805 95.0863 22.9041ZM86.5898 30.3799C89.5666 30.3799 91.9798 27.9712 91.9798 25C91.9798 22.0287 89.5666 19.6201 86.5898 19.6201C83.6131 19.6201 81.1998 22.0287 81.1998 25C81.1998 27.9712 83.6131 30.3799 86.5898 30.3799Z" fill="#030303"/>
	<path fill-rule="evenodd" clip-rule="evenodd" d="M67.4102 33.7336C72.2426 33.7336 76.1602 29.8234 76.1602 25C76.1602 20.1766 72.2426 16.2664 67.4102 16.2664C62.5777 16.2664 58.6602 20.1766 58.6602 25C58.6602 29.8234 62.5777 33.7336 67.4102 33.7336ZM67.4102 30.3799C70.3869 30.3799 72.8002 27.9712 72.8002 25C72.8002 22.0288 70.3869 19.6201 67.4102 19.6201C64.4334 19.6201 62.0202 22.0288 62.0202 25C62.0202 27.9712 64.4334 30.3799 67.4102 30.3799Z" fill="#030303"/>
	<path d="M41.4404 16.6856H45.3604L48.6158 21.58C49.0064 22.1672 49.2862 22.8043 49.4554 23.4631V23.4629H51.2754V23.4631C51.4447 22.8043 51.7245 22.1672 52.1151 21.58L55.3704 16.6856H59.2904L54.7243 23.5509C54.1402 24.429 54.1402 25.571 54.7243 26.4491L59.2904 33.3144H55.3704L52.1151 28.4199C51.7245 27.8328 51.4447 27.1956 51.2754 26.5369V26.5371H49.4554V26.5369C49.2862 27.1956 49.0064 27.8328 48.6158 28.4199L45.3604 33.3144H41.4404L46.0065 26.4491C46.5907 25.571 46.5907 24.429 46.0065 23.5509L41.4404 16.6856Z" fill="#030303"/>
	<mask id="mask0_2001_883" style="mask-type:luminance" maskUnits="userSpaceOnUse" x="5" y="14" width="33" height="22">
		<path d="M37.2397 14.1703H5.17969V35.8297H37.2397V14.1703Z" fill="white"/>
	</mask>
	<g mask="url(#mask0_2001_883)">
		<path d="M37.2398 25C37.2398 27.1995 35.4534 28.9826 33.2498 28.9826C31.0462 28.9826 29.2598 27.1995 29.2598 25C29.2598 22.8005 31.0462 21.0175 33.2498 21.0175C35.4534 21.0175 37.2398 22.8005 37.2398 25Z" fill="#FBC40A"/>
		<path d="M21.2094 21.3668L20.6421 20.1828C20.2579 19.3812 19.9869 18.5058 19.8444 17.6288L19.8269 17.5066C19.7735 17.1692 19.6773 16.8555 19.542 16.5476C18.9236 15.1476 17.5208 14.1703 15.8894 14.1703C14.7876 14.1703 13.7901 14.6161 13.0681 15.3368C12.346 16.0575 11.8994 17.0531 11.8994 18.1529C11.8994 19.0747 12.2126 19.9234 12.7394 20.5983C13.1944 21.1747 13.7906 21.6178 14.4516 21.9336C15.5324 22.45 16.5609 23.1468 17.4331 23.9669L18.5319 25L17.4331 26.0332C16.5609 26.8533 15.5324 27.5501 14.4516 28.0664C13.7906 28.3822 13.1944 28.8253 12.7394 29.4018C12.2126 30.0767 11.8994 30.9254 11.8994 31.8472C11.8994 32.9469 12.346 33.9425 13.0681 34.6632C13.7901 35.3839 14.7876 35.8297 15.8894 35.8297C17.5208 35.8297 18.9236 34.8524 19.542 33.4524C19.6773 33.1446 19.7735 32.8309 19.8269 32.4935L19.8444 32.3712C19.9869 31.4943 20.2579 30.6189 20.6421 29.8173L21.2094 28.6332L21.7768 29.8173C22.1609 30.6189 22.432 31.4943 22.5744 32.3712L22.5919 32.4935C22.6453 32.8309 22.7415 33.1446 22.8768 33.4524C23.4953 34.8524 24.8981 35.8297 26.5294 35.8297C27.6312 35.8297 28.6287 35.3839 29.3508 34.6632C30.0728 33.9425 30.5194 32.9469 30.5194 31.8472C30.5194 30.9254 30.2062 30.0767 29.6794 29.4018C29.2244 28.8253 28.6282 28.3822 27.9672 28.0664C26.8864 27.5501 25.8579 26.8533 24.9857 26.0332L23.8869 25L24.9857 23.9669C25.8579 23.1468 26.8864 22.45 27.9672 21.9336C28.6282 21.6178 29.2244 21.1747 29.6794 20.5983C30.2062 19.9234 30.5194 19.0747 30.5194 18.1529C30.5194 17.0531 30.0728 16.0575 29.3508 15.3368C28.6287 14.6161 27.6312 14.1703 26.5294 14.1703C24.8981 14.1703 23.4953 15.1476 22.8768 16.5476C22.7415 16.8555 22.6453 17.1692 22.5919 17.5066L22.5744 17.6288C22.432 18.5058 22.1609 19.3812 21.7768 20.1828L21.2094 21.3668Z" fill="#FBC40A"/>
		<path d="M13.1597 25C13.1597 27.1995 11.3733 28.9826 9.16969 28.9826C6.96607 28.9826 5.17969 27.1995 5.17969 25C5.17969 22.8005 6.96607 21.0175 9.16969 21.0175C11.3733 21.0175 13.1597 22.8005 13.1597 25Z" fill="#FBC40A"/>
	</g>
</svg>