<svg id="logo-light" viewBox="0 0 105 50" fill="none" xmlns="http://www.w3.org/2000/svg">
	<path fill-rule="evenodd" clip-rule="evenodd" d="M90.3232 25.1077C90.3232 28.1548 92.6685 30.625 95.5616 30.625C96.9037 30.625 98.0874 29.914 98.7884 28.8263V30.3602H100.8V25.1077C100.8 22.0606 98.4547 19.5904 95.5616 19.5904C92.6685 19.5904 90.3232 22.0606 90.3232 25.1077ZM98.7884 25.1077C98.7884 26.9847 97.3437 28.5063 95.5616 28.5063C93.7795 28.5063 92.3348 26.9847 92.3348 25.1077C92.3348 23.2307 93.7795 21.709 95.5616 21.709C97.3437 21.709 98.7884 23.2307 98.7884 25.1077Z" fill="#FEFCFD"/>
	<path d="M81.6904 15H83.7019V24.1366H84.9406C85.0323 23.9321 85.1546 23.739 85.3076 23.5647L88.5631 19.8552H90.9099L86.4679 24.9281C86.3791 25.0296 86.3791 25.1858 86.4679 25.2872L90.9099 30.3602H88.5631L85.3076 26.6507C85.1546 26.4764 85.0323 26.2833 84.9406 26.0787H83.7019V30.3602H81.6904V15Z" fill="#FEFCFD"/>
	<path d="M78.4217 19.8552H80.4332V30.3602H78.4217V28.8264C77.7207 29.914 76.537 30.625 75.1949 30.625C72.3018 30.625 69.9565 28.1548 69.9565 25.1077V19.8552H71.968V25.1077C71.968 26.9847 73.4127 28.5064 75.1949 28.5064C76.977 28.5064 78.4217 26.9847 78.4217 25.1077V19.8552Z" fill="#FEFCFD"/>
	<path fill-rule="evenodd" clip-rule="evenodd" d="M68.7989 23.7837C68.8006 23.791 68.8024 23.7983 68.8041 23.8056C68.9 24.2231 68.9507 24.6591 68.9507 25.1077C68.9507 28.1548 66.6054 30.625 63.7124 30.625C60.8193 30.625 58.474 28.1548 58.474 25.1077C58.474 22.3574 60.3846 20.0771 62.8841 19.659C61.6185 18.6872 59.8652 17.5303 58.8093 17.1186V15H68.1964V17.1186H62.6228C67.4585 19.8126 68.4485 22.3289 68.7882 23.7385C68.7918 23.7537 68.7954 23.7688 68.7989 23.7837ZM63.7124 28.5063C65.4945 28.5063 66.9392 26.9847 66.9392 25.1077C66.9392 23.2307 65.4945 21.709 63.7124 21.709C61.9302 21.709 60.4855 23.2307 60.4855 25.1077C60.4855 26.9847 61.9302 28.5063 63.7124 28.5063Z" fill="#FEFCFD"/>
	<path fill-rule="evenodd" clip-rule="evenodd" d="M57.3164 23.7837C57.3182 23.791 57.3199 23.7983 57.3216 23.8056C57.4175 24.2231 57.4682 24.6591 57.4682 25.1077C57.4682 28.1548 55.123 30.625 52.2299 30.625C49.3368 30.625 46.9915 28.1548 46.9915 25.1077C46.9915 22.3574 48.9021 20.0771 51.4017 19.659C50.136 18.6872 48.3827 17.5303 47.3268 17.1186V15H56.7139V17.1186H51.1403C55.976 19.8126 56.966 22.3289 57.3057 23.7385C57.3093 23.7537 57.3129 23.7688 57.3164 23.7837ZM52.2299 28.5063C54.012 28.5063 55.4567 26.9847 55.4567 25.1077C55.4567 23.2307 54.012 21.709 52.2299 21.709C50.4478 21.709 49.0031 23.2307 49.0031 25.1077C49.0031 26.9847 50.4478 28.5063 52.2299 28.5063Z" fill="#FEFCFD"/>
	<path fill-rule="evenodd" clip-rule="evenodd" d="M40.7474 30.625C43.6405 30.625 45.9858 28.1548 45.9858 25.1077C45.9858 22.0606 43.6405 19.5904 40.7474 19.5904C37.8543 19.5904 35.509 22.0606 35.509 25.1077C35.509 28.1548 37.8543 30.625 40.7474 30.625ZM40.7474 28.5063C42.5295 28.5063 43.9742 26.9847 43.9742 25.1077C43.9742 23.2307 42.5295 21.709 40.7474 21.709C38.9653 21.709 37.5206 23.2307 37.5206 25.1077C37.5206 26.9847 38.9653 28.5063 40.7474 28.5063Z" fill="#FEFCFD"/>
	<path d="M25.2 19.8552H27.5467L29.4956 22.9472C29.7294 23.3181 29.897 23.7206 29.9983 24.1368V24.1366H31.0879V24.1368C31.1892 23.7206 31.3567 23.3181 31.5905 22.9472L33.5394 19.8552H35.8862L33.1526 24.1922C32.8029 24.747 32.8029 25.4684 33.1526 26.0231L35.8862 30.3602H33.5394L31.5905 27.2682C31.3567 26.8972 31.1892 26.4948 31.0879 26.0786V26.0787H29.9983V26.0786C29.897 26.4948 29.7294 26.8972 29.4956 27.2682L27.5467 30.3602H25.2L27.9336 26.0231C28.2832 25.4684 28.2832 24.747 27.9336 24.1922L25.2 19.8552Z" fill="#FEFCFD"/>
	<mask id="mask0_252_13610" style="mask-type:luminance" maskUnits="userSpaceOnUse" x="3" y="18" width="20" height="14">
	<path d="M22.3439 18.2314H3.10791V31.7686H22.3439V18.2314Z" fill="white"/>
	</mask>
	<g mask="url(#mask0_252_13610)">
	<path d="M22.3439 25C22.3439 26.3747 21.2721 27.4891 19.9499 27.4891C18.6277 27.4891 17.5559 26.3747 17.5559 25C17.5559 23.6253 18.6277 22.5109 19.9499 22.5109C21.2721 22.5109 22.3439 23.6253 22.3439 25Z" fill="#FBC40A"/>
	<path d="M12.7259 22.7293L12.3855 21.9893C12.155 21.4883 11.9924 20.9411 11.9069 20.393L11.8964 20.3166C11.8644 20.1057 11.8066 19.9097 11.7255 19.7173C11.3544 18.8423 10.5127 18.2314 9.53389 18.2314C8.8728 18.2314 8.27431 18.5101 7.84108 18.9605C7.40785 19.4109 7.13989 20.0332 7.13989 20.7206C7.13989 21.2967 7.32783 21.8271 7.64389 22.2489C7.91689 22.6092 8.27459 22.8861 8.67121 23.0835C9.3197 23.4063 9.93679 23.8417 10.4601 24.3543L11.1194 25L10.4601 25.6457C9.93679 26.1583 9.3197 26.5938 8.67121 26.9165C8.27459 27.1139 7.91689 27.3908 7.64389 27.7511C7.32783 28.1729 7.13989 28.7034 7.13989 29.2795C7.13989 29.9668 7.40785 30.5891 7.84108 31.0395C8.27431 31.49 8.8728 31.7686 9.53389 31.7686C10.5127 31.7686 11.3544 31.1578 11.7255 30.2828C11.8066 30.0904 11.8644 29.8943 11.8964 29.6834L11.9069 29.607C11.9924 29.059 12.155 28.5118 12.3855 28.0108L12.7259 27.2707L13.0663 28.0108C13.2968 28.5118 13.4594 29.059 13.5449 29.607L13.5554 29.6834C13.5874 29.8943 13.6452 30.0904 13.7263 30.2828C14.0974 31.1578 14.9391 31.7686 15.9179 31.7686C16.579 31.7686 17.1775 31.49 17.6107 31.0395C18.0439 30.5891 18.3119 29.9668 18.3119 29.2795C18.3119 28.7034 18.1239 28.1729 17.8079 27.7511C17.5349 27.3908 17.1772 27.1139 16.7806 26.9165C16.1321 26.5938 15.515 26.1583 14.9917 25.6457L14.3324 25L14.9917 24.3543C15.515 23.8417 16.1321 23.4063 16.7806 23.0835C17.1772 22.8861 17.5349 22.6092 17.8079 22.2489C18.1239 21.8271 18.3119 21.2967 18.3119 20.7206C18.3119 20.0332 18.0439 19.4109 17.6107 18.9605C17.1775 18.5101 16.579 18.2314 15.9179 18.2314C14.9391 18.2314 14.0974 18.8423 13.7263 19.7173C13.6452 19.9097 13.5874 20.1057 13.5554 20.3166L13.5449 20.393C13.4594 20.9411 13.2968 21.4883 13.0663 21.9893L12.7259 22.7293Z" fill="#FBC40A"/>
	<path d="M7.89591 25C7.89591 26.3747 6.82408 27.4891 5.50191 27.4891C4.17974 27.4891 3.10791 26.3747 3.10791 25C3.10791 23.6253 4.17974 22.5109 5.50191 22.5109C6.82408 22.5109 7.89591 23.6253 7.89591 25Z" fill="#FBC40A"/>
	</g>
</svg>