<svg id="procent-circle" viewBox="0 0 148 148" xmlns="http://www.w3.org/2000/svg">
	<path fill-rule="evenodd" clip-rule="evenodd" d="M74.1001 16.8667C105.433 16.8667 130.833 42.2673 130.833 73.6001C130.833 104.933 105.433 130.333 74.1001 130.333C42.7673 130.333 17.3667 104.933 17.3667 73.6001C17.3669 42.2674 42.7674 16.8669 74.1001 16.8667ZM74.1001 139.534C110.514 139.534 140.034 110.014 140.034 73.6001C140.034 37.1863 110.514 7.66748 74.1001 7.66748C37.6864 7.66766 8.16766 37.1864 8.16748 73.6001C8.16748 110.014 37.6863 139.534 74.1001 139.534ZM94.8666 38.9891C92.6882 37.682 89.8622 38.3888 88.5551 40.5672L51.7553 101.9C50.4483 104.079 51.155 106.904 53.3334 108.211C55.5118 109.518 58.3369 108.812 59.644 106.634L96.4438 45.2997C97.7506 43.1213 97.0448 40.2962 94.8666 38.9891ZM57.2328 58.2671C57.2328 55.7266 55.1736 53.6666 52.6332 53.6665C50.0927 53.6665 48.0326 55.7266 48.0326 58.2671C48.0327 60.8075 50.0927 62.8667 52.6332 62.8667C55.1735 62.8666 57.2327 60.8074 57.2328 58.2671ZM66.433 58.2671C66.4329 65.8885 60.2545 72.0668 52.6332 72.0669C45.0117 72.0669 38.8335 65.8885 38.8334 58.2671C38.8334 50.6455 45.0116 44.4673 52.6332 44.4673C60.2546 44.4674 66.433 50.6456 66.433 58.2671ZM95.5665 84.3332C98.1069 84.3333 100.166 86.3934 100.166 88.9338C100.166 91.4742 98.1069 93.5333 95.5665 93.5334C93.0261 93.5334 90.966 91.4742 90.9659 88.9338C90.9659 86.3933 93.026 84.3332 95.5665 84.3332ZM95.5665 102.734C103.188 102.733 109.366 96.5552 109.366 88.9338C109.366 81.3123 103.188 75.1341 95.5665 75.134C87.945 75.134 81.7667 81.3123 81.7667 88.9338C81.7668 96.5552 87.945 102.734 95.5665 102.734Z"/>
</svg>