<svg id="ruble_fw_normal" viewBox="0 0 9 10" xmlns="http://www.w3.org/2000/svg">
	<path d="M5.28125 5.65909H0.480114V4.64347H5.28125C5.72443 4.64347 6.09067 4.56652 6.37997 4.41264C6.66927 4.25568 6.88471 4.04332 7.02628 3.77557C7.16785 3.50473 7.23864 3.19697 7.23864 2.85227C7.23864 2.50758 7.16785 2.20135 7.02628 1.93359C6.88471 1.66276 6.66927 1.4504 6.37997 1.29652C6.09067 1.13956 5.72443 1.06108 5.28125 1.06108H3.12074V9.5H1.97585V0.0454543H5.28125C5.98295 0.0454543 6.56155 0.173177 7.01705 0.428622C7.47254 0.684067 7.81108 1.02415 8.03267 1.44886C8.25426 1.87358 8.36506 2.34138 8.36506 2.85227C8.36506 3.36316 8.25426 3.83097 8.03267 4.25568C7.81108 4.6804 7.47254 5.02048 7.01705 5.27592C6.56155 5.53137 5.98295 5.65909 5.28125 5.65909ZM5.20739 6.54545V7.56108H0.480114V6.54545H5.20739Z"/>
</svg>