<svg id="ruble_fw_bold" viewBox="0 0 12 12" xmlns="http://www.w3.org/2000/svg">
	<path d="M6.9375 7.78977H0.738636V5.81818H6.86932C7.33144 5.81818 7.71023 5.75 8.00568 5.61364C8.30114 5.47727 8.51894 5.28409 8.65909 5.03409C8.79924 4.78409 8.86932 4.48864 8.86932 4.14773C8.86932 3.81439 8.79924 3.51326 8.65909 3.24432C8.51894 2.97538 8.30492 2.76136 8.01705 2.60227C7.72917 2.44318 7.36932 2.36364 6.9375 2.36364H4.83523V12H2.39205V0.363636H6.9375C7.85795 0.363636 8.64583 0.528409 9.30114 0.857954C9.96023 1.18371 10.464 1.63068 10.8125 2.19886C11.161 2.76326 11.3333 3.40341 11.3295 4.11932C11.3333 4.86932 11.1572 5.51894 10.8011 6.06818C10.4451 6.61742 9.9375 7.04167 9.27841 7.34091C8.61932 7.64015 7.83902 7.78977 6.9375 7.78977ZM7.375 8.53977V10.5114H0.738636V8.53977H7.375Z"/>
</svg>