<svg width="17" height="10" viewBox="0 0 17 10" fill="none" xmlns="http://www.w3.org/2000/svg">
<path d="M1.13647 9.7334C0.312824 9.7334 -0.35487 9.10744 -0.35487 8.33527L-0.35487 6.84908C0.931581 6.53866 1.88214 5.44383 1.88213 4.14088C1.88213 2.83794 0.931581 1.74311 -0.354871 1.43269L-0.354871 -0.0535008C-0.354871 -0.825666 0.312824 -1.45163 1.13647 -1.45163L4.11914 -1.45163L4.11914 9.7334L1.13647 9.7334Z" fill="#B22B29"/>
<rect width="8.23701" height="11.185" transform="translate(4.11914 -1.45166)" fill="#B22B29"/>
<path d="M8.25489 5.72573V5.46835C8.25489 5.28405 8.29302 5.11564 8.36928 4.96311C8.44713 4.809 8.55994 4.68587 8.70769 4.59372C8.85704 4.49998 9.03737 4.45312 9.24867 4.45312C9.46475 4.45312 9.64587 4.49919 9.79204 4.59134C9.93821 4.68349 10.0486 4.80662 10.1233 4.96073C10.1996 5.11484 10.2377 5.28405 10.2377 5.46835V5.72573C10.2377 5.91003 10.1996 6.07923 10.1233 6.23335C10.047 6.38587 9.93503 6.509 9.78727 6.60274C9.6411 6.69489 9.46157 6.74096 9.24867 6.74096C9.03419 6.74096 8.85307 6.69489 8.70531 6.60274C8.55755 6.509 8.44554 6.38587 8.36928 6.23335C8.29302 6.07923 8.25489 5.91003 8.25489 5.72573ZM8.81017 5.46835V5.72573C8.81017 5.86237 8.84274 5.98629 8.90788 6.09751C8.97302 6.20872 9.08662 6.26433 9.24867 6.26433C9.40914 6.26433 9.52115 6.20872 9.5847 6.09751C9.64825 5.98629 9.68003 5.86237 9.68003 5.72573V5.46835C9.68003 5.33171 9.64905 5.20779 9.58709 5.09657C9.52671 4.98536 9.41391 4.92975 9.24867 4.92975C9.0898 4.92975 8.97699 4.98536 8.91026 5.09657C8.84353 5.20779 8.81017 5.33171 8.81017 5.46835ZM5.80022 2.93265V2.67527C5.80022 2.49097 5.83835 2.32176 5.91461 2.16765C5.99246 2.01354 6.10527 1.89041 6.25302 1.79826C6.40237 1.70611 6.5827 1.66004 6.79401 1.66004C7.01008 1.66004 7.1912 1.70611 7.33737 1.79826C7.48354 1.89041 7.59396 2.01354 7.66863 2.16765C7.7433 2.32176 7.78064 2.49097 7.78064 2.67527V2.93265C7.78064 3.11695 7.74251 3.28615 7.66625 3.44027C7.59157 3.59279 7.48036 3.71592 7.3326 3.80966C7.18643 3.90181 7.0069 3.94788 6.79401 3.94788C6.57793 3.94788 6.39602 3.90181 6.24826 3.80966C6.10209 3.71592 5.99088 3.59279 5.91461 3.44027C5.83835 3.28615 5.80022 3.11695 5.80022 2.93265ZM6.35788 2.67527V2.93265C6.35788 3.06929 6.38966 3.19321 6.45321 3.30443C6.51835 3.41564 6.63195 3.47125 6.79401 3.47125C6.95288 3.47125 7.0641 3.41564 7.12765 3.30443C7.19279 3.19321 7.22536 3.06929 7.22536 2.93265V2.67527C7.22536 2.53863 7.19438 2.41471 7.13242 2.30349C7.07045 2.19228 6.95765 2.13667 6.79401 2.13667C6.63513 2.13667 6.52232 2.19228 6.45559 2.30349C6.39045 2.41471 6.35788 2.53863 6.35788 2.67527ZM6.02662 6.64087L9.38213 1.76013H9.95171L6.5962 6.64087H6.02662Z" fill="white"/>
<path d="M15.3386 -1.45166C16.1623 -1.45166 16.83 -0.825697 16.83 -0.0535316V1.43266C15.5435 1.74307 14.593 2.83791 14.593 4.14085C14.593 5.4438 15.5435 6.53863 16.83 6.84905V8.33524C16.83 9.1074 16.1623 9.73337 15.3386 9.73337H12.356V-1.45166L15.3386 -1.45166Z" fill="#B22B29"/>
</svg>
