<svg id="soc-yt" viewBox="0 0 36 36" fill="none" xmlns="http://www.w3.org/2000/svg">
	<path d="M16.2 21.6V15.6L21 18.6001L16.2 21.6Z" fill="#FF0000"/>
	<path fill-rule="evenodd" clip-rule="evenodd" d="M9 0C4.02944 0 0 4.02944 0 9V27C0 31.9706 4.02944 36 9 36H27C31.9706 36 36 31.9706 36 27V9C36 4.02944 31.9706 0 27 0H9ZM27.1988 13.5549C26.978 12.7067 26.3273 12.0387 25.5012 11.812C24.004 11.4 18 11.4 18 11.4C18 11.4 11.996 11.4 10.4987 11.812C9.67254 12.0387 9.02192 12.7067 8.80113 13.5549C8.4 15.0923 8.4 18.3 8.4 18.3C8.4 18.3 8.4 21.5076 8.80113 23.0451C9.02192 23.8933 9.67254 24.5613 10.4987 24.7881C11.996 25.2 18 25.2 18 25.2C18 25.2 24.004 25.2 25.5012 24.7881C26.3273 24.5613 26.978 23.8933 27.1988 23.0451C27.6 21.5076 27.6 18.3 27.6 18.3C27.6 18.3 27.6 15.0923 27.1988 13.5549Z" fill="#FF0000"/>
	<path fill-rule="evenodd" clip-rule="evenodd" d="M25.5012 11.8119C26.3274 12.0386 26.978 12.7066 27.1988 13.5548C27.6 15.0922 27.6 18.2999 27.6 18.2999C27.6 18.2999 27.6 21.5075 27.1988 23.045C26.978 23.8932 26.3274 24.5612 25.5012 24.788C24.0041 25.1999 18 25.1999 18 25.1999C18 25.1999 11.996 25.1999 10.4987 24.788C9.67257 24.5612 9.02195 23.8932 8.80115 23.045C8.40002 21.5075 8.40002 18.2999 8.40002 18.2999C8.40002 18.2999 8.40002 15.0922 8.80115 13.5548C9.02195 12.7066 9.67257 12.0386 10.4987 11.8119C11.996 11.3999 18 11.3999 18 11.3999C18 11.3999 24.0041 11.3999 25.5012 11.8119ZM16.2 21.5999V15.5999L21 18.6L16.2 21.5999Z" fill="white"/>
</svg>
