<svg id="soc-vk" viewBox="0 0 36 36" fill="none" xmlns="http://www.w3.org/2000/svg">
	<path fill-rule="evenodd" clip-rule="evenodd" d="M9 0C4.02944 0 0 4.02944 0 9V27C0 31.9706 4.02944 36 9 36H27C31.9706 36 36 31.9706 36 27V9C36 4.02944 31.9706 0 27 0H9ZM28.6081 11.3576C29.3957 11.3576 29.5735 11.7641 29.3956 12.323C29.1181 13.604 26.8133 17.0019 26.0994 18.0543C25.9638 18.2543 25.8856 18.3696 25.8897 18.3696C25.6102 18.8269 25.5086 19.0302 25.8897 19.5383C26.0274 19.7262 26.3195 20.0128 26.6534 20.3404C26.9968 20.6774 27.3843 21.0576 27.6935 21.4183C28.8113 22.6886 29.6751 23.7556 29.9038 24.4924C30.107 25.2292 29.7513 25.6103 28.9892 25.6103H26.3724C25.6789 25.6103 25.3214 25.212 24.5596 24.3633C24.2329 23.9993 23.832 23.5526 23.2983 23.0189C21.7485 21.5199 21.0626 21.3167 20.6815 21.3167C20.1479 21.3167 19.9955 21.4437 19.9955 22.2059V24.5686C19.9955 25.2038 19.7923 25.5849 18.1155 25.5849C15.3463 25.5849 12.2722 23.9081 10.1127 20.7832C6.86072 16.2101 5.97152 12.7549 5.97152 12.069C5.97152 11.6879 6.09854 11.3322 6.86072 11.3322H9.50292C10.1635 11.3322 10.4175 11.6117 10.6716 12.3484C11.9673 16.0831 14.1268 19.3604 15.016 19.3604C15.3463 19.3604 15.4987 19.208 15.4987 18.3696V14.5079C15.436 13.4103 15.0539 12.9321 14.7705 12.5774C14.5948 12.3575 14.4571 12.1851 14.4571 11.942C14.4571 11.6371 14.7111 11.3322 15.1176 11.3322H19.2333C19.7923 11.3322 19.9955 11.6371 19.9955 12.2976V17.5058C19.9955 18.0647 20.2242 18.268 20.402 18.268C20.7323 18.268 21.0117 18.0647 21.6215 17.455C23.5015 15.3463 24.848 12.0944 24.848 12.0944C25.0259 11.7133 25.3307 11.3576 25.9913 11.3576H28.6081Z" fill="#4680C2"/>
	<path fill-rule="evenodd" clip-rule="evenodd" d="M28.6081 11.3574C29.3956 11.3574 29.5735 11.7639 29.3956 12.3229C29.1181 13.6038 26.8133 17.0017 26.0994 18.0542C25.9638 18.2541 25.8856 18.3694 25.8896 18.3694C25.6102 18.8267 25.5085 19.03 25.8896 19.5381C26.0274 19.726 26.3195 20.0126 26.6534 20.3402C26.9968 20.6772 27.3843 21.0574 27.6934 21.4181C28.8113 22.6884 29.6751 23.7555 29.9037 24.4922C30.107 25.229 29.7513 25.6101 28.9891 25.6101H26.3723C25.6789 25.6101 25.3214 25.2118 24.5596 24.3631C24.2329 23.9991 23.8319 23.5524 23.2982 23.0187C21.7485 21.5198 21.0625 21.3165 20.6814 21.3165C20.1479 21.3165 19.9955 21.4435 19.9955 22.2057V24.5684C19.9955 25.2036 19.7922 25.5847 18.1155 25.5847C15.3462 25.5847 12.2721 23.9079 10.1126 20.783C6.8607 16.2099 5.9715 12.7548 5.9715 12.0688C5.9715 11.6877 6.09853 11.332 6.8607 11.332H9.5029C10.1635 11.332 10.4175 11.6115 10.6716 12.3483C11.9673 16.0829 14.1268 19.3603 15.016 19.3603C15.3462 19.3603 15.4987 19.2078 15.4987 18.3694V14.5078C15.4359 13.4101 15.0538 12.9319 14.7705 12.5772C14.5948 12.3573 14.457 12.1849 14.457 11.9418C14.457 11.6369 14.7111 11.332 15.1176 11.332H19.2333C19.7922 11.332 19.9955 11.6369 19.9955 12.2975V17.5056C19.9955 18.0646 20.2241 18.2678 20.402 18.2678C20.7323 18.2678 21.0117 18.0646 21.6215 17.4548C23.5015 15.3461 24.848 12.0942 24.848 12.0942C25.0258 11.7131 25.3307 11.3574 25.9913 11.3574H28.6081Z" fill="white"/>
</svg>