<svg id="soc-pt" viewBox="0 0 36 36" fill="none" xmlns="http://www.w3.org/2000/svg">
	<path d="M9 0C4.02944 0 0 4.02944 0 9V27C0 31.9706 4.02944 36 9 36H11.3326C11.1622 34.3333 11.1619 32.6529 11.3322 30.9848C11.4374 29.9714 11.6266 28.9685 11.8978 27.9864C12.3221 25.7906 13.224 21.9435 13.4185 21.574C13.5472 21.329 13.6231 21.0597 13.6414 20.7835C13.6597 20.5073 13.6198 20.2304 13.5244 19.9705C13.0842 18.5428 13.0842 17.0155 13.5244 15.5878C13.6382 15.1822 13.8373 14.8056 14.1082 14.4831C14.3791 14.1606 14.7159 13.8997 15.0958 13.7176C15.4756 13.5355 15.8899 13.4366 16.311 13.4274C16.7321 13.4182 17.1503 13.4989 17.5377 13.6642C19.2767 14.3997 18.5825 16.9364 18.2616 18.1091C18.2269 18.2359 18.1966 18.3468 18.1741 18.4377C17.6504 19.8837 17.3119 21.3902 17.1665 22.9212C17.1804 23.5999 17.4608 24.246 17.9471 24.7197C18.4334 25.1934 19.0865 25.4568 19.7653 25.4529C20.6632 25.3835 21.524 25.0656 22.2515 24.5348C22.979 24.004 23.5444 23.2813 23.8846 22.4474C24.7675 20.6128 25.2267 18.6032 25.2282 16.5672C25.3123 14.9448 24.8381 13.3425 23.8846 12.0271C23.142 11.2442 22.2444 10.6246 21.2491 10.2079C20.2537 9.79121 19.1822 9.5865 18.1033 9.60683C16.0536 9.57342 14.0662 10.311 12.5345 11.6735C10.9089 13.1247 9.91832 15.1565 9.77638 17.331C9.68954 18.437 9.90976 19.5456 10.4128 20.5345C10.8098 20.9665 11.0792 21.5002 11.1908 22.0761C11.1371 22.3637 10.9404 23.0719 10.8258 23.4846C10.7896 23.6149 10.7616 23.7157 10.7488 23.7645C10.6958 23.9679 10.236 24.3763 9.51115 23.9095C8.28003 23.151 7.36368 21.9741 6.93001 20.5946C6.28469 18.503 6.30327 16.2629 6.9831 14.1822C7.83351 12.1047 9.23285 10.2976 11.0316 8.95442C13.3042 7.37574 16.0276 6.57674 18.7929 6.67732C20.2687 6.64301 21.7356 6.91712 23.0994 7.48214C24.4633 8.04716 25.694 8.89064 26.7132 9.95861C27.6494 10.9405 28.3742 12.1042 28.8425 13.3774C29.3108 14.6507 29.5127 16.0065 29.436 17.361C29.4697 20.4535 28.3401 23.4458 26.2713 25.7446C25.5124 26.6062 24.5715 27.2883 23.5166 27.7415C22.4617 28.1946 21.3193 28.4075 20.1719 28.3647C19.3989 28.3386 18.6395 28.1547 17.9402 27.8242C17.2409 27.4937 16.6165 27.0236 16.1056 26.443C16.1056 26.443 15.1155 29.9365 14.7973 31.0131C14.3245 32.4883 13.6839 33.9043 12.888 35.2332C12.726 35.5094 12.5353 35.7663 12.3198 36H27C31.9706 36 36 31.9706 36 27V9C36 4.02944 31.9706 0 27 0H9Z" fill="#E60019"/>
	<path d="M11.3322 30.9849C11.1618 32.6529 11.1621 34.3334 11.3326 36.0001H12.3197C12.5353 35.7664 12.726 35.5095 12.888 35.2333C13.6839 33.9043 14.3244 32.4884 14.7973 31.0132C15.1155 29.9366 16.1055 26.443 16.1055 26.443C16.6165 27.0237 17.2409 27.4938 17.9402 27.8243C18.6394 28.1547 19.3989 28.3387 20.1719 28.3648C21.3192 28.4076 22.4617 28.1947 23.5166 27.7415C24.5715 27.2884 25.5124 26.6063 26.2712 25.7447C28.3401 23.4459 29.4697 20.4536 29.4359 17.3611C29.5127 16.0066 29.3108 14.6508 28.8424 13.3775C28.3741 12.1042 27.6493 10.9406 26.7132 9.95869C25.694 8.89072 24.4633 8.04725 23.0994 7.48222C21.7356 6.9172 20.2687 6.6431 18.7928 6.6774C16.0275 6.57682 13.3042 7.37583 11.0315 8.95451C9.23282 10.2977 7.83348 12.1048 6.98307 14.1823C6.30324 16.263 6.28466 18.5031 6.92998 20.5947C7.36365 21.9742 8.28 23.1511 9.51112 23.9096C10.236 24.3763 10.6958 23.9679 10.7488 23.7646C10.7615 23.7158 10.7895 23.615 10.8257 23.4846C10.9404 23.072 11.1371 22.3637 11.1908 22.0762C11.0792 21.5002 10.8098 20.9666 10.4128 20.5346C9.90973 19.5457 9.68951 18.4371 9.77635 17.3311C9.91829 15.1566 10.9089 13.1248 12.5345 11.6736C14.0662 10.3111 16.0536 9.57351 18.1033 9.60691C19.1822 9.58659 20.2536 9.79129 21.249 10.208C22.2444 10.6247 23.1419 11.2443 23.8845 12.0272C24.838 13.3426 25.3123 14.9449 25.2282 16.5673C25.2267 18.6033 24.7675 20.6129 23.8845 22.4475C23.5444 23.2814 22.979 24.0041 22.2515 24.5349C21.524 25.0657 20.6632 25.3836 19.7653 25.453C19.0864 25.4569 18.4334 25.1935 17.9471 24.7198C17.4608 24.2461 17.1804 23.6 17.1665 22.9213C17.3118 21.3902 17.6503 19.8838 18.1741 18.4378C18.1965 18.3469 18.2269 18.236 18.2616 18.1092L18.2616 18.1092C18.5825 16.9365 19.2767 14.3998 17.5377 13.6643C17.1502 13.499 16.7321 13.4183 16.311 13.4275C15.8899 13.4367 15.4756 13.5356 15.0957 13.7177C14.7159 13.8997 14.3791 14.1607 14.1082 14.4832C13.8372 14.8057 13.6382 15.1823 13.5244 15.5879C13.0842 17.0156 13.0842 18.5429 13.5244 19.9706C13.6198 20.2305 13.6596 20.5074 13.6414 20.7836C13.6231 21.0598 13.5472 21.3291 13.4184 21.5741C13.224 21.9436 12.3221 25.7907 11.8978 27.9865C11.6266 28.9686 11.4374 29.9715 11.3322 30.9849Z" fill="white"/>
</svg>