<svg id="social-tg" viewBox="0 0 33 32" xmlns="http://www.w3.org/2000/svg">
	<path fill-rule="evenodd" clip-rule="evenodd" d="M4.2002 0C1.99106 0 0.200195 1.79086 0.200195 4V28C0.200195 30.2091 1.99106 32 4.2002 32H28.2002C30.4093 32 32.2002 30.2091 32.2002 28V4C32.2002 1.79086 30.4093 0 28.2002 0H4.2002ZM16.6997 11.5537C15.1473 12.213 12.0446 13.5775 7.39177 15.6473C6.63622 15.9541 6.24043 16.2542 6.20439 16.5476C6.1435 17.0436 6.75177 17.2389 7.58008 17.5048C7.69275 17.541 7.80949 17.5784 7.92917 17.6182C8.7441 17.8886 9.84032 18.2051 10.4102 18.2176C10.9271 18.229 11.5041 18.0114 12.1411 17.5648C16.4884 14.5686 18.7325 13.0541 18.8734 13.0215C18.9728 12.9985 19.1105 12.9695 19.2039 13.0542C19.2972 13.1389 19.288 13.2993 19.2781 13.3423C19.2179 13.6046 16.8302 15.8711 15.5945 17.044C15.2093 17.4096 14.9361 17.669 14.8803 17.7282C14.7551 17.8609 14.6276 17.9864 14.505 18.107C13.748 18.8522 13.1802 19.411 14.5365 20.3236C15.1882 20.7621 15.7098 21.1247 16.2301 21.4865C16.7983 21.8816 17.3651 22.2757 18.0984 22.7665C18.2852 22.8915 18.4636 23.0214 18.6374 23.1479C19.2987 23.6292 19.8928 24.0617 20.6268 23.9927C21.0533 23.9527 21.4938 23.5432 21.7176 22.322C22.2463 19.4359 23.2856 13.1827 23.5258 10.6059C23.5469 10.3801 23.5204 10.0912 23.4991 9.96434C23.4779 9.8375 23.4334 9.65679 23.272 9.52302C23.0807 9.36459 22.7855 9.33118 22.6535 9.33344C22.0532 9.34435 21.1322 9.67134 16.6997 11.5537Z"/>
</svg>