<svg id="social-yt" viewBox="0 0 33 32" xmlns="http://www.w3.org/2000/svg">
	<path fill-rule="evenodd" clip-rule="evenodd" d="M0.200195 4C0.200195 1.79086 1.99106 0 4.2002 0H28.2002C30.4093 0 32.2002 1.79086 32.2002 4V28C32.2002 30.2091 30.4093 32 28.2002 32H4.2002C1.99106 32 0.200195 30.2091 0.200195 28V4ZM24.3769 12.0488C24.1806 11.2948 23.6023 10.7011 22.8679 10.4996C21.5371 10.1333 16.2002 10.1333 16.2002 10.1333C16.2002 10.1333 10.8633 10.1333 9.53236 10.4996C8.79801 10.7011 8.21969 11.2948 8.02342 12.0488C7.66686 13.4154 7.66686 16.2667 7.66686 16.2667C7.66686 16.2667 7.66686 19.1179 8.02342 20.4845C8.21969 21.2385 8.79801 21.8323 9.53236 22.0339C10.8633 22.4 16.2002 22.4 16.2002 22.4C16.2002 22.4 21.5371 22.4 22.8679 22.0339C23.6023 21.8323 24.1806 21.2385 24.3769 20.4845C24.7335 19.1179 24.7335 16.2667 24.7335 16.2667C24.7335 16.2667 24.7335 13.4154 24.3769 12.0488ZM14.6002 13.8667V19.2L18.8668 16.5335L14.6002 13.8667Z"/>
</svg>