<svg id="social-ok" viewBox="0 0 33 32" xmlns="http://www.w3.org/2000/svg">
	<path fill-rule="evenodd" clip-rule="evenodd" d="M4.2002 0C1.99106 0 0.200195 1.79086 0.200195 4V28C0.200195 30.2091 1.99106 32 4.2002 32H28.2002C30.4093 32 32.2002 30.2091 32.2002 28V4C32.2002 1.79086 30.4093 0 28.2002 0H4.2002ZM20.4666 12.1291C20.4666 14.4053 18.5487 16.2569 16.1893 16.2569C13.8305 16.2569 11.912 14.4053 11.912 12.1291C11.912 9.85207 13.8305 8 16.1893 8C18.5487 8 20.4666 9.85207 20.4666 12.1291ZM17.9308 19.6269C18.8015 19.4354 19.6412 19.1029 20.4146 18.634C20.9999 18.2778 21.1762 17.531 20.8074 16.966C20.4389 16.3998 19.6658 16.2293 19.0794 16.5855C17.3274 17.6491 15.0716 17.6488 13.3206 16.5855C12.7343 16.2293 11.9609 16.3998 11.5931 16.966C11.2243 17.5315 11.4001 18.2778 11.9854 18.634C12.7588 19.1024 13.5985 19.4354 14.4692 19.6269L12.0778 21.9352C11.589 22.4076 11.589 23.1734 12.0783 23.6457C12.3233 23.8817 12.6437 23.9998 12.9641 23.9998C13.285 23.9998 13.606 23.8817 13.8509 23.6457L16.1998 21.3774L18.5507 23.6457C19.0395 24.1181 19.8326 24.1181 20.3219 23.6457C20.8118 23.1734 20.8118 22.4071 20.3219 21.9352L17.9308 19.6269ZM17.961 12.129C17.961 11.1863 17.1666 10.4198 16.1899 10.4198C15.2141 10.4198 14.4189 11.1863 14.4189 12.129C14.4189 13.071 15.2141 13.8381 16.1899 13.8381C17.1666 13.8381 17.961 13.071 17.961 12.129Z"/>
</svg>