<svg id="stroke_cart-empty" viewBox="0 0 100 100" fill="none" xmlns="http://www.w3.org/2000/svg">
    <path d="M8.33398 8.3335H15.584C20.084 8.3335 23.6257 12.2085 23.2507 16.6668L19.7923 58.1668C19.209 64.9585 24.584 70.7918 31.4173 70.7918H75.7923C81.7923 70.7918 87.0423 65.8752 87.5006 59.9169L89.7506 28.6669C90.2506 21.7502 85.0006 16.1251 78.0423 16.1251H24.2507" stroke="#808185" stroke-width="4" stroke-miterlimit="10" stroke-linecap="round" stroke-linejoin="round"/>
    <path d="M67.7083 91.6667C70.5848 91.6667 72.9167 89.3348 72.9167 86.4583C72.9167 83.5818 70.5848 81.25 67.7083 81.25C64.8318 81.25 62.5 83.5818 62.5 86.4583C62.5 89.3348 64.8318 91.6667 67.7083 91.6667Z" stroke="#808185" stroke-width="4" stroke-miterlimit="10" stroke-linecap="round" stroke-linejoin="round"/>
    <path d="M34.3743 91.6667C37.2508 91.6667 39.5827 89.3348 39.5827 86.4583C39.5827 83.5818 37.2508 81.25 34.3743 81.25C31.4979 81.25 29.166 83.5818 29.166 86.4583C29.166 89.3348 31.4979 91.6667 34.3743 91.6667Z" stroke="#808185" stroke-width="4" stroke-miterlimit="10" stroke-linecap="round" stroke-linejoin="round"/>
    <path d="M37.5 33.3335H87.5" stroke="#808185" stroke-width="4" stroke-miterlimit="10" stroke-linecap="round" stroke-linejoin="round"/>
</svg>