<svg id="3d" viewBox="0 0 28 28" xmlns="http://www.w3.org/2000/svg">
	<path fill-rule="evenodd" clip-rule="evenodd" d="M9.11663 8.17322L9.1217 8.17319C11.0413 8.1732 12.5975 9.72935 12.5975 11.649C12.5975 12.5783 12.2014 13.4152 11.5688 14C12.2014 14.5848 12.5975 15.4217 12.5975 16.351C12.5975 18.2706 11.0413 19.8268 9.1217 19.8268H9.11663C7.57182 19.8176 6.22286 18.7791 5.81886 17.288C5.69609 16.8349 5.96388 16.3681 6.41698 16.2453C6.87009 16.1225 7.33692 16.3903 7.45969 16.8434C7.6637 17.5964 8.34436 18.121 9.12423 18.1268C10.1038 18.1254 10.8975 17.3309 10.8975 16.351C10.8975 15.522 10.2254 14.85 9.39642 14.85C8.92698 14.85 8.54642 14.4694 8.54642 14C8.54642 13.5306 8.92698 13.15 9.39642 13.15C10.2254 13.15 10.8975 12.478 10.8975 11.649C10.8975 10.6691 10.1038 9.87458 9.12424 9.8732C8.34437 9.87898 7.6637 10.4036 7.45969 11.1566C7.33692 11.6097 6.87009 11.8775 6.41698 11.7547C5.96388 11.6319 5.69609 11.1651 5.81886 10.712C6.22286 9.22093 7.57182 8.18244 9.11663 8.17322ZM13.8743 9.0232C13.8743 8.55376 14.2548 8.1732 14.7243 8.1732H17.5292C20.1151 8.1732 22.2113 10.2695 22.2113 12.8553V15.1467C22.2086 17.7308 20.1137 19.8255 17.5296 19.8268H14.7243C14.2548 19.8268 13.8743 19.4462 13.8743 18.9768V9.0232ZM15.5743 9.8732V18.1268H17.5287C19.1747 18.1259 20.5091 16.7925 20.5113 15.1467V12.8553C20.5113 11.2083 19.1762 9.8732 17.5292 9.8732H15.5743Z"/>
</svg>