<svg id="barcode" viewBox="0 0 16 16" xmlns="http://www.w3.org/2000/svg">
	<path d="M12.3478 2.26086C12.0598 2.26086 11.8261 2.4944 11.8261 2.78261V13.2174C11.8261 13.5056 12.0598 13.7391 12.3478 13.7391C12.6358 13.7391 12.8696 13.5056 12.8696 13.2174V2.78261C12.8696 2.4944 12.6359 2.26086 12.3478 2.26086ZM6.43478 2.26086C6.14675 2.26086 5.91303 2.4944 5.91303 2.78261V13.2174C5.91303 13.5056 6.14675 13.7391 6.43478 13.7391C6.72281 13.7391 6.95653 13.5056 6.95653 13.2174V2.78261C6.95653 2.4944 6.72281 2.26086 6.43478 2.26086ZM4 2.26086C3.71197 2.26086 3.47825 2.4944 3.47825 2.78261V13.2174C3.47825 13.5056 3.71197 13.7391 4 13.7391C4.28803 13.7391 4.52175 13.5056 4.52175 13.2174V2.78261C4.52175 2.4944 4.28803 2.26086 4 2.26086ZM1.04347 2.26086C0.467156 2.26086 0 2.72802 0 3.30433V12.6956C0 13.272 0.467156 13.7391 1.04347 13.7391C1.61978 13.7391 2.08694 13.272 2.08694 12.6956V3.30433C2.08697 2.72802 1.61978 2.26086 1.04347 2.26086ZM9.39131 2.26086C8.815 2.26086 8.34784 2.72802 8.34784 3.30433V12.6956C8.34784 13.272 8.815 13.7391 9.39131 13.7391C9.96762 13.7391 10.4348 13.272 10.4348 12.6956V3.30433C10.4348 2.72802 9.96762 2.26086 9.39131 2.26086Z"/>
	<path d="M9.39131 2.26086C8.815 2.26086 8.34784 2.72802 8.34784 3.30433V12.6956C8.34784 13.272 8.815 13.7391 9.39131 13.7391C9.96762 13.7391 10.4348 13.272 10.4348 12.6956V3.30433C10.4348 2.72802 9.96762 2.26086 9.39131 2.26086ZM14.9565 2.26086C14.3802 2.26086 13.9131 2.72802 13.9131 3.30433V12.6956C13.9131 13.272 14.3802 13.7391 14.9565 13.7391C15.5328 13.7391 16 13.272 16 12.6956V3.30433C16 2.72802 15.5328 2.26086 14.9565 2.26086Z"/>
</svg>