<svg id="box-check" viewBox="0 0 16 16" xmlns="http://www.w3.org/2000/svg">
	<path fill-rule="evenodd" clip-rule="evenodd" d="M14.1103 11.7448C14.3486 11.5145 14.3551 11.1347 14.1248 10.8964C13.8945 10.6581 13.5146 10.6517 13.2764 10.882L12.2965 11.829L12.04 11.5852C11.7998 11.3569 11.4201 11.3665 11.1918 11.6067C10.9635 11.8469 10.9731 12.2267 11.2133 12.455L11.8867 13.095C12.1197 13.3164 12.4858 13.3149 12.717 13.0915L14.1103 11.7448Z"/>
	<path fill-rule="evenodd" clip-rule="evenodd" d="M15.0067 9.71928V6.1134C15.0067 5.52056 14.7982 4.90605 14.4927 4.38782C14.1871 3.86962 13.7502 3.38957 13.2309 3.10197L9.67373 1.13021L9.67224 1.12937C9.18076 0.853896 8.57366 0.733398 8 0.733398C7.42637 0.733398 6.81929 0.85389 6.32781 1.12935L2.76935 3.10184C2.25009 3.38944 1.81289 3.86962 1.50733 4.38782C1.20176 4.90605 0.993347 5.52056 0.993347 6.1134V9.88676C0.993347 10.4796 1.20176 11.0941 1.50733 11.6123C1.81289 12.1305 2.24985 12.6106 2.76911 12.8982L6.32628 14.8699L6.32784 14.8708C6.81931 15.1463 7.42638 15.2668 8 15.2668C8.57345 15.2668 9.18031 15.1463 9.6717 14.8711L10.4775 14.4264C11.0707 14.965 11.866 15.2844 12.7323 15.2666L12.7378 15.2665C13.5564 15.2422 14.2999 14.9254 14.8647 14.403C15.1072 14.1842 15.3273 13.9163 15.494 13.6184C15.7856 13.1215 15.9493 12.5405 15.9332 11.9254C15.9134 11.0651 15.5633 10.2902 15.0067 9.71928ZM8 1.9334C7.57423 1.9334 7.18197 2.02599 6.91372 2.17659L6.91089 2.17818L3.35089 4.15152C3.15655 4.25913 2.95786 4.43282 2.77982 4.65253L7.99986 7.67341L13.2185 4.6505C13.0409 4.43175 12.8431 4.25893 12.6494 4.15165L9.08628 2.1766C8.81803 2.026 8.42577 1.9334 8 1.9334ZM13.758 5.72481L8.6 8.71256V14.0021C8.78572 13.9601 8.95163 13.8992 9.08629 13.8236L9.09007 13.8214L9.74538 13.4598C9.53265 13.0402 9.40725 12.5639 9.40009 12.0646L9.40005 12.0614C9.39967 12.041 9.4 12.0206 9.4 12.0001C9.4 10.998 9.85063 10.0937 10.5715 9.49518L10.5741 9.49297C10.5916 9.47849 10.6093 9.46419 10.6271 9.45007C11.1697 9.01787 11.8529 8.75052 12.5935 8.73389C13.0201 8.72434 13.4298 8.79659 13.8067 8.93688V6.1134C13.8067 5.99283 13.7901 5.86163 13.758 5.72481ZM11.0556 13.2829C11.0774 13.3084 11.0969 13.3355 11.1139 13.3638C11.4954 13.8048 12.0672 14.0792 12.705 14.0669C13.2303 14.0506 13.6978 13.8487 14.052 13.5202L14.0586 13.5141C14.213 13.3752 14.35 13.2066 14.4488 13.0287L14.4566 13.0151C14.6423 12.7005 14.7437 12.3377 14.7335 11.956L14.7335 11.9536C14.7203 11.3692 14.4663 10.8472 14.0685 10.4802C14.0467 10.4657 14.0258 10.4498 14.0058 10.4324C13.6453 10.1183 13.1844 9.93341 12.6667 9.93341C12.1828 9.93341 11.7333 10.1029 11.374 10.3893L11.3729 10.3901C10.8995 10.7658 10.6 11.3477 10.6 12.0001C10.6 12.3876 10.7084 12.7521 10.8974 13.0585L10.9043 13.0701L10.9096 13.0793C10.9461 13.1442 10.9949 13.2121 11.0556 13.2829ZM7.4 14.0021V8.71273L2.24142 5.72741C2.20965 5.86329 2.19335 5.9936 2.19335 6.1134V9.88676C2.19335 10.2139 2.31493 10.6194 2.54102 11.0028C2.76708 11.3862 3.06335 11.6894 3.35065 11.8485L6.91372 13.8236C7.04838 13.8992 7.21429 13.9601 7.4 14.0021Z"/>
</svg>
