<svg id="box-3d" viewBox="0 0 20 20" xmlns="http://www.w3.org/2000/svg">
	<path fill-rule="evenodd" clip-rule="evenodd" d="M9.72062 1.10764C9.89658 1.01966 10.1037 1.01966 10.2796 1.10764L12.1296 2.03264C12.4384 2.18701 12.5635 2.56243 12.4091 2.87117C12.2548 3.1799 11.8794 3.30504 11.5706 3.15067L10.0001 2.36543L8.42964 3.15067C8.1209 3.30504 7.74548 3.1799 7.59111 2.87117C7.43674 2.56243 7.56188 2.18701 7.87062 2.03264L9.72062 1.10764ZM5.00081 4.16215C5.15518 4.47089 5.03004 4.84631 4.72131 5.00067L3.98934 5.36666L4.72131 5.73264C5.03004 5.88701 5.15518 6.26243 5.00081 6.57117C4.84645 6.8799 4.47103 7.00504 4.16229 6.85068L3.2168 6.37793V7.68332C3.2168 8.0285 2.93697 8.30832 2.5918 8.30832C2.24662 8.30832 1.9668 8.0285 1.9668 7.68332V5.36666C1.9668 5.12993 2.10055 4.91351 2.31229 4.80764L4.16229 3.88264C4.47103 3.72827 4.84645 3.85341 5.00081 4.16215ZM14.9994 4.16215C15.1538 3.85341 15.5292 3.72827 15.838 3.88264L17.688 4.80764C17.8997 4.91351 18.0335 5.12993 18.0335 5.36666V7.68332C18.0335 8.0285 17.7536 8.30832 17.4085 8.30832C17.0633 8.30832 16.7835 8.0285 16.7835 7.68332V6.37793L15.838 6.85068C15.5292 7.00504 15.1538 6.8799 14.9994 6.57117C14.8451 6.26243 14.9702 5.88701 15.279 5.73264L16.0109 5.36666L15.279 5.00067C14.9702 4.84631 14.8451 4.47089 14.9994 4.16215ZM7.59111 7.87048C7.74548 7.56174 8.1209 7.4366 8.42964 7.59097L10.0001 8.37622L11.5706 7.59097C11.8794 7.4366 12.2548 7.56174 12.4091 7.87048C12.5635 8.17922 12.4384 8.55464 12.1296 8.70901L10.6251 9.46126V11.3917C10.6251 11.7368 10.3453 12.0167 10.0001 12.0167C9.65495 12.0167 9.37513 11.7368 9.37513 11.3917V9.46126L7.87062 8.70901C7.56188 8.55464 7.43674 8.17922 7.59111 7.87048ZM2.5918 11.6917C2.93697 11.6917 3.2168 11.9715 3.2168 12.3167V14.2471L4.72131 14.9993C5.03004 15.1537 5.15518 15.5291 5.00081 15.8378C4.84645 16.1466 4.47103 16.2717 4.16229 16.1173L2.31229 15.1923C2.10055 15.0865 1.9668 14.8701 1.9668 14.6333V12.3167C1.9668 11.9715 2.24662 11.6917 2.5918 11.6917ZM17.4085 11.6917C17.7536 11.6917 18.0335 11.9715 18.0335 12.3167V14.6333C18.0335 14.8701 17.8997 15.0865 17.688 15.1923L15.838 16.1173C15.5292 16.2717 15.1538 16.1466 14.9994 15.8378C14.8451 15.5291 14.9702 15.1537 15.279 14.9993L16.7835 14.2471V12.3167C16.7835 11.9715 17.0633 11.6917 17.4085 11.6917ZM10.0001 15.3917C10.3453 15.3917 10.6251 15.6715 10.6251 16.0167V17.3221L11.5706 16.8493C11.8794 16.6949 12.2548 16.8201 12.4091 17.1288C12.5635 17.4376 12.4384 17.813 12.1296 17.9673L10.2796 18.8923C10.1037 18.9803 9.89658 18.9803 9.72062 18.8923L7.87062 17.9673C7.56188 17.813 7.43674 17.4376 7.59111 17.1288C7.74548 16.8201 8.1209 16.6949 8.42964 16.8493L9.37513 17.3221V16.0167C9.37513 15.6715 9.65495 15.3917 10.0001 15.3917Z"/>
</svg>
