<svg id="box-cancel" viewBox="0 0 16 17" xmlns="http://www.w3.org/2000/svg">
	<path fill-rule="evenodd" clip-rule="evenodd" d="M7.99982 2.43334C7.57405 2.43334 7.18179 2.52593 6.91354 2.67653L6.91071 2.67812L3.35071 4.65146C3.15636 4.75907 2.95768 4.93276 2.77963 5.15247L7.99968 8.17335L13.2184 5.15043C13.0407 4.93169 12.8429 4.75887 12.6492 4.65159L9.0861 2.67654C8.81785 2.52594 8.42559 2.43334 7.99982 2.43334ZM13.7578 6.22475L8.59982 9.2125V14.5021C8.78553 14.4601 8.95144 14.3991 9.0861 14.3235L9.08989 14.3214L9.74705 13.9587C9.52347 13.5181 9.39982 13.02 9.39982 12.5C9.39982 11.4724 9.87368 10.5476 10.6269 9.95001C11.1874 9.50354 11.8975 9.23335 12.6665 9.23335C13.0506 9.23335 13.4178 9.29882 13.7587 9.42025C13.7747 9.42592 13.7906 9.43171 13.8065 9.43762V6.61334C13.8065 6.49277 13.79 6.36157 13.7578 6.22475ZM13.4495 10.5867C13.6532 10.671 13.84 10.788 14.0056 10.9323C14.0245 10.9488 14.0442 10.9639 14.0646 10.9777C14.4757 11.3553 14.7332 11.8974 14.7332 12.5C14.7332 12.8875 14.6247 13.252 14.4358 13.5584L14.4282 13.571C14.3226 13.7521 14.1873 13.9119 14.0343 14.0403C14.0289 14.0448 14.0236 14.0494 14.0184 14.054C13.6607 14.376 13.19 14.5667 12.6665 14.5667C12.0385 14.5667 11.4796 14.288 11.1048 13.8493C11.0899 13.8262 11.0735 13.804 11.0554 13.7829C11.0305 13.7538 11.0076 13.7252 10.9867 13.6971C10.9569 13.6548 10.9287 13.6112 10.9021 13.5666L10.8972 13.5584C10.7082 13.252 10.5998 12.8875 10.5998 12.5C10.5998 11.8477 10.8993 11.2657 11.3728 10.89L11.3738 10.8892C11.7331 10.6028 12.1826 10.4334 12.6665 10.4334C12.9437 10.4334 13.208 10.4878 13.4495 10.5867ZM10.48 14.9248L9.67151 15.371C9.18013 15.6463 8.57326 15.7667 7.99982 15.7667C7.4262 15.7667 6.81913 15.6462 6.32766 15.3708C6.32714 15.3705 6.32662 15.3702 6.3261 15.3699L2.76917 13.3983C2.76909 13.3982 2.76925 13.3983 2.76917 13.3983C2.24991 13.1107 1.8127 12.6305 1.50715 12.1123C1.20158 11.594 0.993164 10.9795 0.993164 10.3867V6.61334C0.993164 6.0205 1.20158 5.40598 1.50715 4.88776C1.8127 4.36956 2.24967 3.88951 2.76893 3.60191L6.32763 1.62929C6.8191 1.35383 7.42618 1.23334 7.99982 1.23334C8.57347 1.23334 9.18057 1.35384 9.67206 1.62931C9.67255 1.62959 9.67305 1.62987 9.67355 1.63015L13.2305 3.60178C13.2304 3.60174 13.2306 3.60183 13.2305 3.60178C13.7497 3.88938 14.1869 4.36956 14.4925 4.88776C14.7981 5.40598 15.0065 6.0205 15.0065 6.61334V10.2202C15.58 10.8087 15.9332 11.613 15.9332 12.5C15.9332 13.1099 15.763 13.6897 15.4611 14.182C15.289 14.4753 15.0685 14.7374 14.8134 14.9529C14.2388 15.4668 13.486 15.7667 12.6665 15.7667C11.8229 15.7667 11.0562 15.4474 10.48 14.9248ZM7.39982 14.5021V9.21267L2.24124 6.22735C2.20947 6.36323 2.19316 6.49354 2.19316 6.61334V10.3867C2.19316 10.7139 2.31474 11.1193 2.54083 11.5028C2.76689 11.8861 3.06317 12.1894 3.35047 12.3484L6.91354 14.3235C7.0482 14.3991 7.21411 14.4601 7.39982 14.5021ZM11.5412 11.3634C11.775 11.1285 12.1549 11.1276 12.3898 11.3614L12.6765 11.6468L12.9432 11.3814C13.1781 11.1477 13.558 11.1486 13.7917 11.3834C14.0255 11.6183 14.0246 11.9982 13.7897 12.232L13.5271 12.4934L13.8031 12.7681C14.038 13.0018 14.0389 13.3817 13.8051 13.6166C13.5713 13.8514 13.1914 13.8523 12.9566 13.6186L12.6765 13.3399L12.3764 13.6386C12.1415 13.8724 11.7616 13.8715 11.5279 13.6366C11.2941 13.4017 11.295 13.0218 11.5299 12.7881L11.826 12.4934L11.5432 12.2119C11.3084 11.9782 11.3075 11.5983 11.5412 11.3634Z"/>
</svg>
