<svg id="catalog" viewBox="0 0 20 20" xmlns="http://www.w3.org/2000/svg">
    <path d="M1.875 5C1.875 4.65482 2.15482 4.375 2.5 4.375H17.5C17.8452 4.375 18.125 4.65482 18.125 5C18.125 5.34518 17.8452 5.625 17.5 5.625H2.5C2.15482 5.625 1.875 5.34518 1.875 5Z"/>
    <path d="M1.875 10C1.875 9.65482 2.15482 9.375 2.5 9.375H9.16667C9.51184 9.375 9.79167 9.65482 9.79167 10C9.79167 10.3452 9.51184 10.625 9.16667 10.625H2.5C2.15482 10.625 1.875 10.3452 1.875 10Z"/>
    <path d="M2.5 14.375C2.15482 14.375 1.875 14.6548 1.875 15C1.875 15.3452 2.15482 15.625 2.5 15.625H13.3333C13.6785 15.625 13.9583 15.3452 13.9583 15C13.9583 14.6548 13.6785 14.375 13.3333 14.375H2.5Z"/>
</svg>