<svg id="checkbox-rec" viewBox="0 0 14 14" xmlns="http://www.w3.org/2000/svg">
	<path d="M6.74311 0.641663C5.78291 0.641659 5.0301 0.641657 4.42506 0.691091C3.80896 0.741428 3.29998 0.845628 2.83929 1.08036C2.08194 1.46625 1.46619 2.082 1.0803 2.83935C0.845567 3.30004 0.741367 3.80902 0.69103 4.42512C0.641596 5.03016 0.641598 5.78296 0.641602 6.74317V7.25682C0.641598 8.21702 0.641596 8.96983 0.69103 9.57487C0.741367 10.191 0.845567 10.7 1.0803 11.1606C1.46619 11.918 2.08194 12.5337 2.83929 12.9196C3.29998 13.1544 3.80896 13.2586 4.42506 13.3089C5.0301 13.3583 5.78291 13.3583 6.74312 13.3583H7.25675C8.21696 13.3583 8.96977 13.3583 9.57481 13.3089C10.1909 13.2586 10.6999 13.1544 11.1606 12.9196C11.9179 12.5337 12.5337 11.918 12.9196 11.1606C13.1543 10.7 13.2585 10.191 13.3088 9.57487C13.3583 8.96983 13.3583 8.21702 13.3583 7.25681V6.35185C13.3583 6.0619 13.1232 5.82685 12.8333 5.82685C12.5433 5.82685 12.3083 6.0619 12.3083 6.35185V7.23333C12.3083 8.22208 12.3079 8.93208 12.2623 9.48937C12.2173 10.0405 12.1308 10.396 11.984 10.684C11.6988 11.2437 11.2437 11.6989 10.6839 11.9841C10.3959 12.1308 10.0405 12.2174 9.48931 12.2624C8.93201 12.3079 8.22202 12.3083 7.23327 12.3083H6.7666C5.77785 12.3083 5.06785 12.3079 4.51056 12.2624C3.95939 12.2174 3.60398 12.1308 3.31598 11.9841C2.7562 11.6989 2.30108 11.2437 2.01586 10.684C1.86911 10.396 1.78257 10.0405 1.73754 9.48937C1.69201 8.93208 1.6916 8.22208 1.6916 7.23333V6.76666C1.6916 5.77791 1.69201 5.06792 1.73754 4.51062C1.78257 3.95946 1.86911 3.60404 2.01586 3.31604C2.30108 2.75626 2.7562 2.30114 3.31598 2.01592C3.60398 1.86918 3.95939 1.78264 4.51056 1.7376C5.06785 1.69207 5.77785 1.69166 6.7666 1.69166H9.59253C9.88248 1.69166 10.1175 1.45661 10.1175 1.16666C10.1175 0.876713 9.88248 0.641663 9.59253 0.641663L6.74311 0.641663Z"/>
	<path d="M13.2045 2.70456C13.4095 2.49954 13.4095 2.16712 13.2045 1.9621C12.9995 1.75707 12.6671 1.75707 12.462 1.9621L6.99994 7.4242L5.62117 6.04543C5.41614 5.84041 5.08373 5.84041 4.8787 6.04543C4.67368 6.25046 4.67368 6.58287 4.8787 6.78789L6.6287 8.53789C6.83373 8.74292 7.16614 8.74292 7.37117 8.53789L13.2045 2.70456Z"/>
</svg>