<svg id="chevron-right" viewBox="0 0 16 16" xmlns="http://www.w3.org/2000/svg">
    <path d="M5.78316 3.57564C6.01747 3.34132 6.39737 3.34132 6.63169 3.57564L9.51604 6.45999C9.7006 6.64454 9.86394 6.80786 9.98825 6.95429C10.1206 7.11021 10.2436 7.28598 10.3149 7.50548C10.4193 7.82682 10.4193 8.17298 10.3149 8.49433C10.2436 8.71383 10.1206 8.88959 9.98825 9.04552C9.86394 9.19195 9.70059 9.35528 9.51602 9.53983L6.63169 12.4242C6.39737 12.6585 6.01747 12.6585 5.78316 12.4242C5.54884 12.1899 5.54884 11.81 5.78316 11.5756L8.65179 8.70701C8.8568 8.502 8.98471 8.37343 9.07344 8.26891C9.15762 8.16974 9.17076 8.13234 9.17363 8.12351C9.19973 8.04317 9.19973 7.95663 9.17363 7.8763C9.17076 7.86746 9.15762 7.83006 9.07344 7.7309C8.98471 7.62638 8.8568 7.49781 8.65179 7.2928L5.78316 4.42417C5.54884 4.18985 5.54884 3.80995 5.78316 3.57564Z"/>
</svg>