<svg id="clock" viewBox="0 0 16 16" xmlns="http://www.w3.org/2000/svg">
	<path d="M8.35334 5.00674C8.35334 4.67537 8.08471 4.40674 7.75334 4.40674C7.42196 4.40674 7.15334 4.67537 7.15334 5.00674V7.74007C7.15334 8.07923 7.26776 8.41452 7.4238 8.68814C7.57966 8.96144 7.80941 9.22998 8.09992 9.4024L8.10079 9.40291L10.1659 10.6353C10.4504 10.8051 10.8187 10.7121 10.9886 10.4275C11.1584 10.143 11.0654 9.77466 10.7808 9.60484L8.71414 8.37151L8.71255 8.37056C8.64347 8.32963 8.54686 8.2351 8.46621 8.09367C8.38558 7.95229 8.35334 7.82091 8.35334 7.74007V5.00674Z"/>
	<path fill-rule="evenodd" clip-rule="evenodd" d="M8 0.733398C3.98863 0.733398 0.733334 3.98869 0.733334 8.00006C0.733334 12.0114 3.98863 15.2667 8 15.2667C12.0114 15.2667 15.2667 12.0114 15.2667 8.00006C15.2667 3.98869 12.0114 0.733398 8 0.733398ZM1.93333 8.00006C1.93333 4.65144 4.65137 1.9334 8 1.9334C11.3486 1.9334 14.0667 4.65144 14.0667 8.00006C14.0667 11.3487 11.3486 14.0667 8 14.0667C4.65137 14.0667 1.93333 11.3487 1.93333 8.00006Z"/>
</svg>
