<svg id="copy" viewBox="0 0 20 20" xmlns="http://www.w3.org/2000/svg">
	<path fill-rule="evenodd" clip-rule="evenodd" d="M6.97258 1.04163C6.06247 1.04162 5.34121 1.04162 4.75986 1.08912C4.16537 1.13769 3.66235 1.23903 3.20304 1.47306C2.45823 1.85256 1.85268 2.45811 1.47318 3.20291C1.23915 3.66223 1.13781 4.16525 1.08924 4.75974C1.04174 5.34109 1.04174 6.06233 1.04175 6.97245V8.02746C1.04174 8.93758 1.04174 9.65883 1.08924 10.2402C1.13781 10.8347 1.23915 11.3377 1.47318 11.797C1.85268 12.5418 2.45823 13.1474 3.20304 13.5269C3.66235 13.7609 4.16537 13.8622 4.75986 13.9108C5.12727 13.9408 5.55057 13.9519 6.0421 13.9559C6.04327 14.4379 6.04826 14.8408 6.06967 15.1829C6.0982 15.6386 6.15758 16.0279 6.29545 16.3943C6.69698 17.4611 7.53893 18.3031 8.60576 18.7046C8.97209 18.8425 9.36142 18.9018 9.81714 18.9304C10.2634 18.9583 10.8132 18.9583 11.507 18.9583H13.0276C13.9377 18.9583 14.659 18.9583 15.2403 18.9108C15.8348 18.8622 16.3378 18.7609 16.7971 18.5269C17.5419 18.1474 18.1475 17.5418 18.527 16.797C18.761 16.3377 18.8624 15.8347 18.9109 15.2402C18.9584 14.6588 18.9584 13.9376 18.9584 13.0275V11.5069C18.9584 10.8131 18.9584 10.2633 18.9305 9.81702C18.902 9.3613 18.8426 8.97197 18.7047 8.60564C18.3032 7.53881 17.4612 6.69686 16.3944 6.29533C16.0281 6.15745 15.6387 6.09808 15.183 6.06955C14.841 6.04814 14.438 6.04315 13.9561 6.04198C13.952 5.55045 13.9409 5.12715 13.9109 4.75974C13.8624 4.16525 13.761 3.66223 13.527 3.20291C13.1475 2.45811 12.5419 1.85256 11.7971 1.47306C11.3378 1.23903 10.8348 1.13769 10.2403 1.08912C9.65895 1.04162 8.93771 1.04162 8.02759 1.04163H6.97258ZM13.9584 7.29202V8.02748C13.9584 8.93758 13.9584 9.65884 13.9109 10.2402C13.8624 10.8347 13.761 11.3377 13.527 11.797C13.1475 12.5418 12.5419 13.1474 11.7971 13.5269C11.3378 13.7609 10.8348 13.8622 10.2403 13.9108C9.65896 13.9583 8.93772 13.9583 8.02761 13.9583H7.29215C7.29334 14.4319 7.29812 14.7994 7.31723 15.1048C7.34212 15.5024 7.38957 15.7527 7.46534 15.954C7.74006 16.6839 8.31613 17.26 9.04607 17.5347C9.24738 17.6105 9.49759 17.6579 9.89522 17.6828C10.2978 17.708 10.8086 17.7083 11.5279 17.7083H13.0001C13.9438 17.7083 14.614 17.7078 15.1385 17.665C15.6557 17.6227 15.9759 17.5424 16.2296 17.4131C16.7392 17.1534 17.1536 16.7391 17.4132 16.2295C17.5425 15.9758 17.6228 15.6556 17.6651 15.1384C17.7079 14.6139 17.7084 13.9437 17.7084 13V11.5277C17.7084 10.8085 17.7081 10.2977 17.6829 9.8951C17.658 9.49747 17.6106 9.24726 17.5348 9.04595C17.2601 8.31601 16.684 7.73994 15.9541 7.46521C15.7528 7.38945 15.5026 7.342 15.1049 7.31711C14.7996 7.298 14.432 7.29322 13.9584 7.29202ZM3.77052 2.58682C4.02425 2.45754 4.34446 2.37722 4.86165 2.33496C5.38614 2.29211 6.05635 2.29163 7.00008 2.29163H8.00008C8.94381 2.29163 9.61403 2.29211 10.1385 2.33496C10.6557 2.37722 10.9759 2.45754 11.2296 2.58682C11.7392 2.84647 12.1536 3.2608 12.4132 3.7704C12.5425 4.02413 12.6228 4.34434 12.6651 4.86153C12.7079 5.38601 12.7084 6.05623 12.7084 6.99996V7.99996C12.7084 8.94369 12.7079 9.6139 12.6651 10.1384C12.6228 10.6556 12.5425 10.9758 12.4132 11.2295C12.1536 11.7391 11.7392 12.1534 11.2296 12.4131C10.9759 12.5424 10.6557 12.6227 10.1385 12.665C9.61403 12.7078 8.94382 12.7083 8.00008 12.7083H7.00008C6.05635 12.7083 5.38614 12.7078 4.86165 12.665C4.34446 12.6227 4.02425 12.5424 3.77052 12.4131C3.26092 12.1534 2.8466 11.7391 2.58694 11.2295C2.45766 10.9758 2.37734 10.6556 2.33509 10.1384C2.29223 9.6139 2.29175 8.94369 2.29175 7.99996V6.99996C2.29175 6.05623 2.29223 5.38601 2.33509 4.86153C2.37734 4.34434 2.45766 4.02413 2.58694 3.7704C2.8466 3.2608 3.26092 2.84647 3.77052 2.58682Z"/>
</svg>