<svg id="delivery" viewBox="0 0 28 29" xmlns="http://www.w3.org/2000/svg">
	<path fill-rule="evenodd" clip-rule="evenodd" d="M2.16397 4.7989C3.10565 3.10942 4.92015 1.95825 6.99992 1.95825H17.4999C17.9832 1.95825 18.3749 2.35 18.3749 2.83325V5.45825H19.6466C20.8061 5.45825 21.8606 6.08591 22.4333 7.07223L22.4362 7.0772L24.4317 10.5666L26.4268 14.0666C26.502 14.1986 26.5416 14.348 26.5416 14.4999V20.3333C26.5416 22.7532 24.5865 24.7083 22.1666 24.7083H21.7542C21.3733 26.0549 20.1352 27.0416 18.6666 27.0416C17.198 27.0416 15.9599 26.0549 15.579 24.7083H12.4208C12.0399 26.0549 10.8018 27.0416 9.33325 27.0416C7.86468 27.0416 6.62656 26.0549 6.24569 24.7083H5.83325C3.41334 24.7083 1.45825 22.7532 1.45825 20.3333C1.45825 19.85 1.85 19.4583 2.33325 19.4583C2.8165 19.4583 3.20825 19.85 3.20825 20.3333C3.20825 21.7867 4.37983 22.9583 5.83325 22.9583H6.24569C6.62656 21.6116 7.86468 20.6249 9.33325 20.6249C10.8018 20.6249 12.0399 21.6116 12.4208 22.9583H15.579C15.9599 21.6116 17.198 20.6249 18.6666 20.6249C20.1352 20.6249 21.3733 21.6116 21.7542 22.9583H22.1666C23.62 22.9583 24.7916 21.7867 24.7916 20.3333V17.7083H22.1666C21.0417 17.7083 20.1249 16.7915 20.1249 15.6666V12.1666C20.1249 11.0428 21.0398 10.1268 22.1632 10.1249L20.9199 7.95097C20.9195 7.95022 20.919 7.94947 20.9186 7.94872C20.651 7.4897 20.1663 7.20825 19.6466 7.20825H18.3749V14.4999C18.3749 16.2665 16.9332 17.7083 15.1666 17.7083H13.9999C13.5167 17.7083 13.1249 17.3165 13.1249 16.8333C13.1249 16.35 13.5167 15.9583 13.9999 15.9583H15.1666C15.9667 15.9583 16.6249 15.3 16.6249 14.4999V3.70825H6.99992C5.57969 3.70825 4.33755 4.49372 3.69256 5.65091C3.45729 6.07301 2.92437 6.22447 2.50226 5.9892C2.08015 5.75393 1.92869 5.22101 2.16397 4.7989ZM23.1631 11.8749H22.1666C22.0082 11.8749 21.8749 12.0082 21.8749 12.1666V15.6666C21.8749 15.825 22.0082 15.9583 22.1666 15.9583H24.7916V14.7318L23.1631 11.8749ZM7.87492 23.8333C7.87492 24.6387 8.52784 25.2916 9.33325 25.2916C10.1387 25.2916 10.7916 24.6387 10.7916 23.8333C10.7916 23.0332 10.1333 22.3749 9.33325 22.3749C8.53317 22.3749 7.87492 23.0332 7.87492 23.8333ZM17.2083 23.8333C17.2083 24.6387 17.8612 25.2916 18.6666 25.2916C19.472 25.2916 20.1249 24.6387 20.1249 23.8333C20.1249 23.0332 19.4667 22.3749 18.6666 22.3749C17.8665 22.3749 17.2083 23.0332 17.2083 23.8333ZM1.45825 9.83325C1.45825 9.35 1.85 8.95825 2.33325 8.95825H9.33325C9.8165 8.95825 10.2083 9.35 10.2083 9.83325C10.2083 10.3165 9.8165 10.7083 9.33325 10.7083H2.33325C1.85 10.7083 1.45825 10.3165 1.45825 9.83325ZM1.45825 13.3333C1.45825 12.85 1.85 12.4583 2.33325 12.4583H6.99992C7.48317 12.4583 7.87492 12.85 7.87492 13.3333C7.87492 13.8165 7.48317 14.2083 6.99992 14.2083H2.33325C1.85 14.2083 1.45825 13.8165 1.45825 13.3333ZM1.45825 16.8333C1.45825 16.35 1.85 15.9583 2.33325 15.9583H4.66659C5.14983 15.9583 5.54158 16.35 5.54158 16.8333C5.54158 17.3165 5.14983 17.7083 4.66659 17.7083H2.33325C1.85 17.7083 1.45825 17.3165 1.45825 16.8333Z"/>
</svg>
