<svg id="filled-catalog" viewBox="0 0 24 24" xmlns="http://www.w3.org/2000/svg">
	<path d="M10.5 8.52V3.98C10.5 2.57 9.86 2 8.27 2H4.23C2.64 2 2 2.57 2 3.98V8.51C2 9.93 2.64 10.49 4.23 10.49H8.27C9.86 10.5 10.5 9.93 10.5 8.52Z"/>
	<path d="M22 3.98V8.52C22 9.93 21.36 10.5 19.77 10.49H15.73C14.14 10.49 13.5 9.93 13.5 8.51V3.98C13.5 2.57 14.14 2 15.73 2H19.77C21.36 2 22 2.57 22 3.98Z"/>
	<path d="M22 15.73V19.77C22 21.36 21.36 22 19.77 22H15.73C14.14 22 13.5 21.36 13.5 19.77V15.73C13.5 14.14 14.14 13.5 15.73 13.5H19.77C21.36 13.5 22 14.14 22 15.73Z"/>
	<path d="M10.5 15.73V19.77C10.5 21.36 9.86 22 8.27 22H4.23C2.64 22 2 21.36 2 19.77V15.73C2 14.14 2.64 13.5 4.23 13.5H8.27C9.86 13.5 10.5 14.14 10.5 15.73Z"/>
</svg>
