<svg id="filled-home2" viewBox="0 0 21 21" xmlns="http://www.w3.org/2000/svg">
	<path opacity="0.4" d="M17.1999 6.18324L12.3999 2.82491C11.0915 1.90824 9.0832 1.95824 7.82487 2.93324L3.64987 6.19157C2.81654 6.84157 2.1582 8.17491 2.1582 9.22491V14.9749C2.1582 17.0999 3.8832 18.8332 6.0082 18.8332H14.9915C17.1165 18.8332 18.8415 17.1082 18.8415 14.9832V9.33324C18.8415 8.20824 18.1165 6.82491 17.1999 6.18324Z"/>
	<path d="M10.5 16.125C10.1583 16.125 9.875 15.8417 9.875 15.5V13C9.875 12.6583 10.1583 12.375 10.5 12.375C10.8417 12.375 11.125 12.6583 11.125 13V15.5C11.125 15.8417 10.8417 16.125 10.5 16.125Z"/>
</svg>