<svg id="filled-chart" viewBox="0 0 25 25" xmlns="http://www.w3.org/2000/svg">
	<path d="M22.5 22.5H2.5C2.09 22.5 1.75 22.16 1.75 21.75C1.75 21.34 2.09 21 2.5 21H22.5C22.91 21 23.25 21.34 23.25 21.75C23.25 22.16 22.91 22.5 22.5 22.5Z"/>
	<path d="M10.25 4.5V22.5H14.75V4.5C14.75 3.4 14.3 2.5 12.95 2.5H12.05C10.7 2.5 10.25 3.4 10.25 4.5Z"/>
	<path d="M3.5 10.5V22.5H7.5V10.5C7.5 9.4 7.1 8.5 5.9 8.5H5.1C3.9 8.5 3.5 9.4 3.5 10.5Z"/>
	<path d="M17.5 15.5V22.5H21.5V15.5C21.5 14.4 21.1 13.5 19.9 13.5H19.1C17.9 13.5 17.5 14.4 17.5 15.5Z"/>
</svg>
