<svg id="filled-favourite" viewBox="0 0 24 24" xmlns="http://www.w3.org/2000/svg">
    <path opacity="0.4" d="M12.89 5.88H5.10999C3.39999 5.88 2 7.27999 2 8.98999V20.35C2 21.8 3.04 22.42 4.31 21.71L8.23999 19.52C8.65999 19.29 9.34 19.29 9.75 19.52L13.68 21.71C14.95 22.42 15.99 21.8 15.99 20.35V8.98999C16 7.27999 14.6 5.88 12.89 5.88Z"/>
    <path d="M22 5.10999V16.47C22 17.92 20.96 18.53 19.69 17.83L16 15.77V8.98999C16 7.27999 14.6 5.88 12.89 5.88H8V5.10999C8 3.39999 9.39999 2 11.11 2H18.89C20.6 2 22 3.39999 22 5.10999Z"/>
</svg>