<svg id="hbk-pattern" viewBox="0 0 64 64" xmlns="http://www.w3.org/2000/svg">
	<path d="M63.1515 32.255C63.1515 38.6803 57.9611 43.889 51.5584 43.889C45.1557 43.889 39.9653 38.6803 39.9653 32.255C39.9653 25.8297 45.1557 20.621 51.5584 20.621C57.9611 20.621 63.1515 25.8297 63.1515 32.255Z"/>
	<path d="M16.5757 21.6415L14.9273 18.1827C13.8114 15.8411 13.0238 13.2837 12.6097 10.7219L12.5589 10.3647C12.4038 9.37917 12.124 8.46269 11.7312 7.56346C9.93416 3.47357 5.85845 0.618652 1.11828 0.618652C-2.08306 0.618652 -4.98132 1.92092 -7.07925 4.02626C-9.17719 6.1316 -10.4748 9.0401 -10.4748 12.2528C-10.4748 14.9456 -9.56469 17.4248 -8.03414 19.3965C-6.71212 21.0802 -4.97997 22.3747 -3.05929 23.2973C0.081068 24.8059 3.06936 26.8412 5.60358 29.237L8.79618 32.2551L5.60359 35.2732C3.06936 37.6689 0.0810699 39.7043 -3.05928 41.2128C-4.97997 42.1355 -6.71212 43.4299 -8.03414 45.1137C-9.56469 47.0853 -10.4748 49.5645 -10.4748 52.2574C-10.4748 55.47 -9.17719 58.3785 -7.07925 60.4839C-4.98132 62.5892 -2.08306 63.8915 1.11828 63.8915C5.85845 63.8915 9.93416 61.0366 11.7312 56.9467C12.124 56.0474 12.4038 55.131 12.5589 54.1454L12.6097 53.7882C13.0238 51.2264 13.8114 48.6691 14.9273 46.3274L16.5758 42.8686L18.2242 46.3274C19.3401 48.6691 20.1278 51.2264 20.5418 53.7882L20.5927 54.1454C20.7477 55.131 21.0275 56.0474 21.4204 56.9467C23.2174 61.0365 27.2931 63.8915 32.0332 63.8915C35.2346 63.8915 38.1328 62.5892 40.2308 60.4839C42.3287 58.3785 43.6263 55.47 43.6263 52.2574C43.6263 49.5645 42.7162 47.0853 41.1857 45.1137C39.8636 43.4299 38.1315 42.1355 36.2108 41.2128C33.0704 39.7043 30.0822 37.6689 27.5479 35.2732L24.3553 32.255L27.5479 29.237C30.0822 26.8412 33.0704 24.8059 36.2108 23.2973C38.1315 22.3747 39.8636 21.0802 41.1857 19.3965C42.7162 17.4248 43.6263 14.9456 43.6263 12.2528C43.6263 9.0401 42.3287 6.1316 40.2308 4.02626C38.1328 1.92092 35.2346 0.618652 32.0332 0.618652C27.2931 0.618652 23.2174 3.47357 21.4204 7.56346C21.0275 8.46269 20.7477 9.37917 20.5927 10.3647L20.5418 10.7219C20.1278 13.2837 19.3401 15.8411 18.2242 18.1827L16.5757 21.6415Z"/>
	<path d="M-6.81381 32.255C-6.81381 38.6803 -12.0042 43.889 -18.4069 43.889C-24.8096 43.889 -30 38.6803 -30 32.255C-30 25.8297 -24.8096 20.621 -18.4069 20.621C-12.0042 20.621 -6.81381 25.8297 -6.81381 32.255Z"/>
</svg>