<svg id="hbk-pattern" viewBox="0 0 48 32" xmlns="http://www.w3.org/2000/svg">
    <path d="M47.9993 15.9996C47.9993 19.2491 45.3245 21.8835 42.025 21.8835C38.7256 21.8835 36.0508 19.2491 36.0508 15.9996C36.0508 12.75 38.7256 10.1157 42.025 10.1157C45.3245 10.1157 47.9993 12.75 47.9993 15.9996Z"/>
    <path d="M23.9985 10.6323L23.149 8.88297C22.5739 7.69868 22.168 6.40529 21.9547 5.10968L21.9285 4.92903C21.8486 4.43061 21.7045 3.9671 21.5019 3.51231C20.5759 1.44387 18.4755 0 16.0329 0C14.3831 0 12.8896 0.658607 11.8084 1.72338C10.7273 2.78815 10.0586 4.25912 10.0586 5.88392C10.0586 7.24583 10.5276 8.49969 11.3163 9.49683C11.9976 10.3484 12.8902 11.003 13.88 11.4697C15.4983 12.2326 17.0383 13.262 18.3443 14.4736L19.9895 16.0001L18.3443 17.5264C17.0383 18.7381 15.4983 19.7675 13.88 20.5303C12.8902 20.9969 11.9976 21.6516 11.3163 22.5032C10.5276 23.5004 10.0586 24.7543 10.0586 26.1161C10.0586 27.7409 10.7273 29.2119 11.8084 30.2766C12.8896 31.3414 14.3831 32 16.0329 32C18.4755 32 20.5759 30.5561 21.5019 28.4877C21.7045 28.033 21.8486 27.5695 21.9285 27.071L21.9547 26.8903C22.168 25.5948 22.5739 24.3014 23.149 23.1172L23.9985 21.3677L24.848 23.1172C25.4232 24.3014 25.8291 25.5948 26.0424 26.8903L26.0686 27.071C26.1485 27.5695 26.2926 28.033 26.4952 28.4877C27.4212 30.5561 29.5216 32 31.9642 32C33.614 32 35.1075 31.3414 36.1887 30.2766C37.2698 29.2119 37.9385 27.7409 37.9385 26.1161C37.9385 24.7543 37.4695 23.5004 36.6807 22.5032C35.9995 21.6516 35.1067 20.9969 34.1171 20.5303C32.4988 19.7675 30.9588 18.7381 29.6529 17.5264L28.0076 16L29.6529 14.4736C30.9588 13.262 32.4988 12.2326 34.1171 11.4697C35.1067 11.003 35.9995 10.3484 36.6807 9.49683C37.4695 8.49969 37.9385 7.24583 37.9385 5.88392C37.9385 4.25912 37.2698 2.78815 36.1887 1.72338C35.1075 0.658607 33.614 0 31.9642 0C29.5216 0 27.4212 1.44387 26.4952 3.51231C26.2926 3.9671 26.1485 4.43061 26.0686 4.92903L26.0424 5.10968C25.8291 6.40529 25.4232 7.69868 24.848 8.88297L23.9985 10.6323Z"/>
    <path d="M11.9485 15.9996C11.9485 19.2491 9.27376 21.8835 5.97426 21.8835C2.67477 21.8835 0 19.2491 0 15.9996C0 12.75 2.67477 10.1157 5.97426 10.1157C9.27376 10.1157 11.9485 12.75 11.9485 15.9996Z"/>
</svg>