<svg id="hbk-pattern-flower" xmlns="http://www.w3.org/2000/svg" viewBox="0 0 38 48">
  <path fill-rule="evenodd" clip-rule="evenodd" d="M15.1124 14.3125L11.4524 10.7508C11.4591 10.8482 11.4616 10.9491 11.4721 11.0428C10.7076 10.9591 9.81315 11.0049 8.79243 11.2166C7.45082 11.4952 5.77952 12.179 4.40519 12.0688C4.03398 12.0399 3.76376 12.0234 3.30881 11.8795L3.32535 11.8884C3.39924 11.9518 3.46046 12.0093 3.51957 12.0664L9.42717 15.2959L9.66361 15.2549C9.80752 15.279 9.93946 15.29 10.0939 15.3021C11.1192 15.384 12.3672 14.8737 13.3697 14.6654C13.9182 14.5518 14.8668 14.5084 14.8668 14.5084L15.118 14.5156L15.1124 14.3125ZM15.9445 9.72986C15.9241 9.49503 15.9076 9.31253 15.8259 9.0505L15.834 8.99266L12.4024 3.32301C12.3884 3.30821 12.3753 3.29753 12.3613 3.28135L12.3514 3.26586C12.5024 3.69971 12.5192 3.95692 12.5506 4.31123C12.666 5.62 11.9471 7.21181 11.6547 8.48994C11.4616 9.33733 11.407 10.088 11.4524 10.7508L15.1124 14.3125L15.3492 12.5671C15.5934 11.667 16.0216 10.612 15.9445 9.72986ZM10.0904 25.9434C9.35574 25.2854 8.56935 24.313 7.67283 23.9105C7.42126 23.7969 7.24006 23.7122 6.89207 23.6433H0.00246296C0.470426 23.7356 0.713204 23.8496 1.04922 24.0004C2.29759 24.5602 3.38552 25.9479 4.40096 26.8293C5.00756 27.3537 5.59937 27.7497 6.16726 28.0389L11.3078 26.8194L10.0904 25.9434ZM11.4844 20.0999C11.4844 20.0999 11.4633 20.0603 11.4341 20.0045L6.33931 18.6072C6.43607 18.757 6.5353 18.9013 6.63804 19.0331C5.93328 19.3258 5.18383 19.79 4.41293 20.4587C3.39607 21.3387 2.3085 22.7274 1.06013 23.2866C0.72587 23.4371 0.482741 23.5503 0.019 23.643H0C0.00105556 23.643 0.00175926 23.6433 0.00246296 23.6433H6.89207L6.89313 23.643H6.90369C7.24991 23.5734 7.43146 23.4897 7.68057 23.3765C8.61263 22.9591 9.4247 21.9227 10.1833 21.2651C10.5981 20.9063 11.3951 20.4177 11.3951 20.4177L11.6157 20.303L11.4844 20.0999ZM10.7888 18.4902C10.5309 17.598 10.3483 16.4914 9.82054 15.7672C9.69528 15.5958 9.595 15.4577 9.42717 15.2959L3.51957 12.0664C3.74019 12.2813 3.87318 12.4641 4.03961 12.6924C4.82706 13.7715 5.03993 15.4928 5.45863 16.7386C5.70422 17.473 6.0047 18.0904 6.33931 18.6072L11.4341 20.0045L10.7888 18.4902ZM19.9475 6.25941C19.9187 6.31691 19.8831 6.37717 19.8564 6.43467C19.2393 6.00014 18.4434 5.61587 17.4522 5.31424C16.144 4.91517 14.3376 4.71236 13.2054 3.96242C12.9154 3.77133 12.6952 3.62671 12.4024 3.32301L15.834 8.99266C16.0529 9.21888 16.2169 9.327 16.4329 9.46955C17.2794 10.0298 18.6277 10.1806 19.6045 10.4784C20.1368 10.6406 20.9774 11.0527 20.9774 11.0527L21.1913 11.1774L21.2592 11.0572L19.9475 6.25941ZM37.9282 11.0472C38.0155 10.3183 37.9683 9.46404 37.7456 8.48994C37.4536 7.21181 36.7358 5.62069 36.8502 4.31123C36.8815 3.9576 36.8991 3.69971 37.05 3.26586L37.0398 3.28238C37.0373 3.28514 37.0352 3.28686 37.0324 3.28962L33.592 8.96752L33.5941 8.98474C33.4938 9.28637 33.4787 9.47506 33.4562 9.72986C33.3703 10.707 33.9069 11.895 34.1247 12.8508C34.2443 13.3749 34.289 14.2787 34.289 14.2787L34.2823 14.518L34.4702 14.5146C34.4702 14.5146 38.0141 11.0383 37.9282 11.0472ZM29.5404 6.43708C29.2336 5.76634 28.7456 5.05221 28.0444 4.31777C27.12 3.34953 25.6627 2.31242 25.0751 1.12382C24.9171 0.805317 24.7982 0.573931 24.7018 0.132507V0.114258C24.7011 0.116324 24.7007 0.117357 24.7004 0.119767V6.68155L24.7011 6.68327V6.68982C24.7735 7.02037 24.8622 7.19253 24.9804 7.43149C25.4192 8.31916 26.5071 9.09217 27.1971 9.81456C27.5739 10.2092 28.0866 10.9684 28.0866 10.9684L28.2066 11.1795L28.2826 11.1347L29.6477 6.36856C29.6136 6.39232 29.5735 6.41367 29.5404 6.43708ZM24.326 1.11452C23.738 2.30278 22.281 3.33851 21.3571 4.30709C20.7128 4.98059 20.2572 5.63619 19.9475 6.25941L21.2592 11.0572L22.3799 9.6331C23.0667 8.95995 24.0171 8.23996 24.4213 7.42254C24.5389 7.18461 24.6275 7.01176 24.7004 6.68155V0.119767C24.6036 0.563601 24.4843 0.793954 24.326 1.11452ZM36.1957 3.96242C35.0634 4.71305 33.2567 4.91586 31.9481 5.31424C31.0091 5.59969 30.2512 5.9626 29.6477 6.36856L28.2826 11.1347L30.0876 10.3985C31.0284 10.1496 32.2025 9.97605 32.9682 9.46955C33.1923 9.32252 33.3594 9.21371 33.592 8.96752L37.0324 3.28962C36.7207 3.61982 36.4969 3.76375 36.1957 3.96242ZM19.3128 36.895C18.3712 37.1439 17.195 37.3175 16.429 37.8246C16.2028 37.973 16.036 38.0801 15.8031 38.3274L12.3606 44.0094C12.673 43.6771 12.8971 43.5332 13.1994 43.3328C14.332 42.5832 16.1384 42.3801 17.4466 41.983C18.3874 41.6966 19.1467 41.3337 19.7505 40.9267L21.1157 36.1588L19.3128 36.895ZM37.9441 36.5321L34.2844 32.97L34.055 34.6848C33.8126 35.5903 33.3742 36.6577 33.4527 37.5509C33.4734 37.7909 33.4896 37.9779 33.5783 38.2544L33.5719 38.3015L37.0029 43.9712C37.0194 43.9891 37.0342 44.0015 37.0514 44.0194L37.0416 44.0039C36.8934 43.5749 36.8755 43.3187 36.8459 42.9671C36.7298 41.657 37.4483 40.0658 37.7407 38.7884C37.9335 37.9417 37.988 37.1925 37.9441 36.5321ZM33.5719 38.3015C33.3531 38.0746 33.1888 37.9679 32.972 37.8246C32.1262 37.2644 30.7772 37.1119 29.8004 36.8147C29.2642 36.6522 28.4194 36.2359 28.4194 36.2359L28.2051 36.1113L28.1401 36.2242L29.4518 41.02C29.4792 40.9656 29.5133 40.9084 29.5383 40.854C30.1579 41.2906 30.9573 41.6787 31.9545 41.9817C33.2627 42.3801 35.0691 42.5832 36.2013 43.3328C36.4909 43.5246 36.7105 43.6685 37.0029 43.9712L33.5719 38.3015ZM12.9925 32.5324C12.0657 32.2969 10.9943 31.9126 10.0939 31.9849C9.86276 32.0032 9.68015 32.0176 9.42998 32.0834L9.33956 32.0727L3.39783 35.3321C3.3725 35.3552 3.35315 35.3737 3.32535 35.3989L3.30917 35.4078C3.76411 35.2636 4.03398 35.2474 4.40519 35.2171C5.77987 35.1076 7.45082 35.7918 8.79313 36.0713C9.69598 36.2583 10.4943 36.3082 11.1973 36.2618L14.9263 32.7769L12.9925 32.5324ZM15.2799 34.4296C15.1609 33.9097 15.1156 33.0093 15.1156 33.0093L15.1215 32.771L14.9263 32.7769L11.1973 36.2618C11.2899 36.2556 11.3877 36.2535 11.4767 36.2435C11.3916 36.9707 11.4394 37.8191 11.6604 38.7884C11.9528 40.0672 12.6712 41.6583 12.5555 42.9671C12.5256 43.3187 12.5069 43.5762 12.3588 44.0046L12.3489 44.0201C12.3532 44.0156 12.3563 44.0128 12.3606 44.0094L15.8031 38.3274L15.802 38.3229C15.9118 38.0044 15.9252 37.8129 15.9484 37.5509C16.0342 36.5737 15.4977 35.3851 15.2799 34.4296ZM11.3923 26.872C11.3923 26.872 11.3571 26.8503 11.3078 26.8194L6.16726 28.0389C6.32524 28.1185 6.48111 28.1939 6.63522 28.2576C6.17922 28.8457 5.77565 29.6036 5.45898 30.5477C5.04063 31.7941 4.82776 33.5147 4.04031 34.5942C3.84574 34.8614 3.6955 35.0666 3.39783 35.3321L9.33956 32.0727C9.56333 31.8727 9.67522 31.7184 9.82054 31.5197C10.4088 30.7137 10.5679 29.4283 10.88 28.4979C11.0506 27.9907 11.483 27.1895 11.483 27.1895L11.6136 26.987L11.3923 26.872ZM28.1401 36.2242L27.0303 37.6377C26.3424 38.3136 25.3854 39.0353 24.9804 39.8562C24.8622 40.0948 24.7735 40.2669 24.7011 40.5971V40.6037L24.7004 40.6051V47.1668C24.7007 47.1696 24.7011 47.171 24.7018 47.1724V47.1541C24.7982 46.713 24.9171 46.4816 25.0751 46.1635C25.6627 44.9745 27.12 43.9374 28.0444 42.9692C28.6872 42.296 29.1425 41.6415 29.4518 41.02L28.1401 36.2242ZM24.7004 40.6051V47.1668C24.6036 46.723 24.4843 46.493 24.326 46.1735C23.738 44.9845 22.281 43.9481 21.3571 42.9799C20.6541 42.244 20.166 41.5285 19.8589 40.8561C19.8254 40.8809 19.7853 40.9019 19.7505 40.9267L21.1157 36.1588L21.1931 36.113L21.3124 36.3227C21.3124 36.3227 21.8257 37.0837 22.2036 37.48C22.8936 38.2024 23.9819 38.9757 24.4213 39.8648C24.5389 40.1027 24.6275 40.2749 24.7004 40.6051Z"/>
</svg>