<svg id="hbk" viewBox="0 0 56 52" xmlns="http://www.w3.org/2000/svg">
	<path d="M15.3272 4.39464C16.1919 4.96502 17.4165 5.24878 18.5648 5.51398L18.5649 5.51398C19.0731 5.63137 19.5678 5.74566 20.01 5.88C21.1024 6.2111 21.9796 6.6329 22.6598 7.10988C23.1036 6.25065 23.6418 5.47406 24.3137 4.77447C25.3318 3.71132 26.938 2.57405 27.5858 1.26995C27.7603 0.918059 27.8933 0.669128 28 0.181985C28.0996 0.636899 28.2393 0.9181 28.3971 1.23558C29.1229 2.69653 30.5829 3.62218 31.6863 4.77447C32.3361 5.45099 32.9414 6.2563 33.3402 7.10988C34.0204 6.6329 34.8975 6.2111 35.99 5.88C36.4322 5.74566 36.9269 5.63137 37.4351 5.51398L37.4353 5.51394C38.5836 5.24875 39.8059 4.96647 40.6706 4.39611C40.9961 4.17229 41.3075 3.94814 41.5836 3.66283C41.4173 4.13907 41.4267 4.39005 41.3922 4.77894C41.304 5.77556 41.6584 6.92229 41.9912 7.99925L41.9912 7.99939C42.1381 8.47446 42.2809 8.93662 42.3795 9.36597C42.5881 10.2771 42.6865 11.2353 42.5808 12.1682C43.4234 12.0764 44.4092 12.1266 45.5342 12.3591C45.9857 12.4525 46.4722 12.5877 46.9718 12.7265L46.9721 12.7266C48.1079 13.0422 49.3181 13.3785 50.3695 13.2945C50.7791 13.2626 51.1748 13.2157 51.5687 13.0916C51.1838 13.4203 51.0062 13.6596 50.7752 13.9754C49.8969 15.4257 49.6869 16.6884 49.5711 17.1392C49.4553 17.59 49.3413 18.0269 49.2085 18.4205C48.8594 19.4603 48.4129 20.2947 47.9086 20.9393C48.6853 21.2605 49.5113 21.77 50.3609 22.5041C50.7042 22.7999 51.0555 23.1491 51.4162 23.5074L51.4162 23.5074C52.2328 24.3187 53.1202 25.1908 54.0739 25.6162C54.4245 25.7735 54.7196 25.9013 55.2141 25.9997C54.7325 26.0943 54.4542 26.219 54.1189 26.3691L54.0899 26.3821C52.5921 27.0512 51.5887 28.4474 50.3741 29.4972C49.52 30.2326 48.6937 30.743 47.9117 31.065C48.4143 31.7106 48.8591 32.5425 49.2081 33.5788C49.3494 33.9983 49.4695 34.4667 49.5931 34.9487L49.5932 34.9491C49.8726 36.0393 50.1699 37.1991 50.7716 38.0207C51.0079 38.3438 51.2711 38.6409 51.5685 38.9089C51.0671 38.7506 50.7786 38.7377 50.3695 38.7045C49.3173 38.621 48.1077 38.9577 46.9713 39.274C46.4713 39.4132 45.9854 39.5484 45.5334 39.6422C44.5708 39.8407 43.5573 39.9407 42.5757 39.8312C42.6696 40.6294 42.6168 41.5607 42.3733 42.6247C42.2746 43.0547 42.1318 43.5168 41.9849 43.9924C41.6523 45.0693 41.2996 46.2312 41.3882 47.2278C41.4197 47.5975 41.4494 47.902 41.608 48.359C41.2779 48.0095 41.0138 47.8352 40.7008 47.6287L40.6945 47.6246C39.8277 47.0532 38.5854 46.7596 37.435 46.4946C36.9287 46.3779 36.4368 46.2646 35.9962 46.1315C35.092 45.8573 34.1029 45.4602 33.3375 44.8944C32.999 45.6325 32.4611 46.418 31.6863 47.2257C31.3742 47.5514 31.0069 47.8842 30.6289 48.2267C29.7736 49.0016 28.847 49.8595 28.3976 50.7646C28.2393 51.082 28.0998 51.3619 28 51.8178C27.8933 51.3305 27.7603 51.0821 27.5858 50.7313C27.1365 49.8263 26.2264 49.0017 25.3712 48.2268L25.371 48.2267C24.9931 47.8842 24.6258 47.5514 24.3137 47.2257C23.5389 46.418 23.001 45.6325 22.6625 44.8944C21.8805 45.4713 20.9264 45.8517 20.0038 46.1315C19.5632 46.2646 19.0713 46.3779 18.565 46.4946C17.4466 46.7522 16.2607 46.9941 15.288 47.6361L15.2817 47.6402C14.969 47.8466 14.722 48.0095 14.392 48.359C14.5506 47.902 14.5789 47.6136 14.6105 47.2439C14.7053 46.1344 14.3379 45.0377 14.015 43.9924C13.8681 43.5168 13.7254 43.0547 13.6267 42.6247C13.3831 41.5607 13.3304 40.6294 13.4242 39.8312C13.3261 39.8421 13.2183 39.8444 13.1163 39.8512C12.3415 39.9022 11.4616 39.8474 10.4666 39.6422C10.0146 39.5484 9.52873 39.4132 9.02872 39.274C7.89229 38.9577 6.68263 38.621 5.63047 38.7045C5.22139 38.7377 4.93287 38.7506 4.43146 38.9089C4.72503 38.6445 4.99532 38.3394 5.22834 38.0207C5.83009 37.1991 6.1274 36.0393 6.40681 34.9491L6.40689 34.9488C6.53047 34.4668 6.65055 33.9983 6.79193 33.5788C7.14093 32.5425 7.5857 31.7106 8.08827 31.065C7.91844 30.9951 7.74664 30.9123 7.57251 30.825C6.94662 30.5075 6.29439 30.0728 5.62585 29.4972C5.28494 29.2025 4.93565 28.8553 4.57719 28.4988L4.57712 28.4988C3.75936 27.6856 2.88777 26.8188 1.93178 26.3918C1.56143 26.2263 1.30162 26.101 0.785858 25.9997C1.28042 25.9013 1.55849 25.7811 1.90904 25.6239C2.9565 25.1532 3.78127 24.3047 4.58375 23.5074C4.94443 23.1491 5.29582 22.8 5.63904 22.5041C6.48865 21.77 7.31463 21.2605 8.0914 20.9393C7.97814 20.7945 7.8688 20.6362 7.76216 20.4717C7.39335 19.9044 7.06221 19.2268 6.79151 18.4205C6.64984 18.0007 6.52951 17.5316 6.4057 17.0489L6.40564 17.0487C6.12623 15.9592 5.82752 14.798 5.22619 13.9772C4.99518 13.6614 4.8162 13.4203 4.43127 13.0916C4.93268 13.2496 5.22139 13.2628 5.63047 13.2945C6.68185 13.3785 7.89211 13.0422 9.0279 12.7266L9.02818 12.7265C9.5278 12.5877 10.0143 12.4525 10.4658 12.3591C11.5908 12.1266 12.5765 12.0764 13.4192 12.1682C13.3132 11.2354 13.4119 10.277 13.6205 9.36597C13.9671 7.85717 14.7472 6.3542 14.6078 4.77894L14.6052 4.74947C14.5724 4.37755 14.5409 4.0194 14.4164 3.66283C14.7375 3.9947 15.0098 4.18636 15.3272 4.39464Z"/>
</svg>