<svg id="heart" viewBox="0 0 20 20" xmlns="http://www.w3.org/2000/svg">
	<path fill-rule="evenodd" clip-rule="evenodd" d="M6.30001 3.20833C4.08977 3.20833 2.29167 5.00891 2.29167 7.24166C2.29167 9.95042 3.54224 12.1208 5.11603 13.7332C6.69736 15.3535 8.56663 16.3683 9.68526 16.7502L9.69136 16.7523L9.69135 16.7523C9.74532 16.7713 9.85719 16.7917 10 16.7917C10.1428 16.7917 10.2547 16.7713 10.3087 16.7523L10.3147 16.7501L10.3148 16.7502C11.4334 16.3683 13.3026 15.3535 14.884 13.7332C16.4578 12.1208 17.7083 9.95042 17.7083 7.24166C17.7083 5.00891 15.9102 3.20833 13.7 3.20833C12.3982 3.20833 11.2308 3.84092 10.5018 4.82263C10.3839 4.9814 10.1978 5.075 10 5.075C9.80224 5.075 9.61615 4.9814 9.49824 4.82263C8.7688 3.84041 7.60956 3.20833 6.30001 3.20833ZM1.04167 7.24166C1.04167 4.32441 3.39358 1.95833 6.30001 1.95833C7.74729 1.95833 9.05381 2.54665 10.0003 3.49559C10.9487 2.54636 12.2602 1.95833 13.7 1.95833C16.6064 1.95833 18.9583 4.32441 18.9583 7.24166C18.9583 10.3662 17.5089 12.8334 15.7785 14.6063C14.0569 16.3703 12.0196 17.4884 10.7214 17.9322C10.4928 18.0123 10.2311 18.0417 10 18.0417C9.76894 18.0417 9.50721 18.0123 9.27862 17.9322C7.98046 17.4884 5.94308 16.3703 4.22148 14.6063C2.4911 12.8334 1.04167 10.3662 1.04167 7.24166Z"/>
</svg>
