<svg id="info" viewBox="0 0 16 16" xmlns="http://www.w3.org/2000/svg">
	<path d="M8.00007 4.73334C8.33144 4.73334 8.60007 5.00197 8.60007 5.33334V8.66667C8.60007 8.99804 8.33144 9.26667 8.00007 9.26667C7.6687 9.26667 7.40007 8.99804 7.40007 8.66667V5.33334C7.40007 5.00197 7.6687 4.73334 8.00007 4.73334Z"/>
	<path d="M7.9964 10.0167C7.63742 10.0167 7.3464 10.3077 7.3464 10.6667C7.3464 11.0257 7.63742 11.3167 7.9964 11.3167H8.00239C8.36138 11.3167 8.65239 11.0257 8.65239 10.6667C8.65239 10.3077 8.36138 10.0167 8.00239 10.0167H7.9964Z"/>
	<path fill-rule="evenodd" clip-rule="evenodd" d="M0.733398 8C0.733398 4.00197 4.00203 0.733337 8.00006 0.733337C11.9981 0.733337 15.2667 4.00197 15.2667 8C15.2667 11.998 11.9981 15.2667 8.00006 15.2667C4.00203 15.2667 0.733398 11.998 0.733398 8ZM8.00006 1.93334C4.66477 1.93334 1.9334 4.66471 1.9334 8C1.9334 11.3353 4.66477 14.0667 8.00006 14.0667C11.3354 14.0667 14.0667 11.3353 14.0667 8C14.0667 4.66471 11.3354 1.93334 8.00006 1.93334Z"/>
</svg>