<svg id="lovely" viewBox="0 0 28 29" xmlns="http://www.w3.org/2000/svg">
	<path fill-rule="evenodd" clip-rule="evenodd" d="M8.11991 4.9917C5.41107 4.9917 3.20825 7.19701 3.20825 9.93835C3.20825 13.299 4.75783 15.9903 6.71447 17.9939C8.19595 19.5109 9.8808 20.6007 11.2149 21.2499C10.0491 19.6917 9.19326 17.7254 9.19326 15.3633C9.19326 12.4712 11.5156 10.125 14.3966 10.125C15.734 10.125 16.9496 10.6307 17.8702 11.4508C18.7866 10.6295 20.0028 10.125 21.3383 10.125C21.6641 10.125 21.9822 10.1548 22.291 10.2119C22.2936 10.1211 22.2949 10.0299 22.2949 9.93835C22.2949 7.19701 20.0921 4.9917 17.3832 4.9917C15.7814 4.9917 14.3553 5.76164 13.4509 6.96428C13.2851 7.18472 13.0251 7.31408 12.7493 7.31335C12.4734 7.31262 12.2141 7.18188 12.0495 6.96057C11.1586 5.76287 9.73512 4.9917 8.11991 4.9917ZM22.7249 12.1629C22.2959 11.9768 21.832 11.875 21.3383 11.875C20.2031 11.875 19.1988 12.4231 18.5751 13.2608C18.4107 13.4818 18.1518 13.6124 17.8764 13.6133C17.601 13.6143 17.3412 13.4856 17.1751 13.2658C16.538 12.4225 15.5307 11.875 14.3966 11.875C12.4943 11.875 10.9433 13.4255 10.9433 15.3633C10.9433 18.1545 12.4179 20.3259 14.1462 21.8464L14.1464 21.8466C15.4286 22.9754 16.8098 23.6965 17.6629 23.9843L17.6707 23.9869L17.6707 23.9869C17.6704 23.9868 17.6756 23.9886 17.6872 23.9913C17.6985 23.9939 17.7137 23.9968 17.7327 23.9995C17.7713 24.005 17.8176 24.0084 17.8674 24.0084C17.9172 24.0084 17.9635 24.005 18.0022 23.9995C18.0211 23.9968 18.0363 23.9939 18.0477 23.9913C18.0583 23.9888 18.0636 23.9871 18.0641 23.9869C18.0642 23.9869 18.0642 23.9869 18.0641 23.9869L18.0698 23.985L18.0698 23.985C19.0753 23.6429 20.785 22.7181 22.2317 21.2359C23.6678 19.7646 24.7916 17.8024 24.7916 15.3633C24.7916 13.9231 23.9437 12.7037 22.7249 12.1629ZM24.0079 10.8616C25.5288 11.777 26.5416 13.4448 26.5416 15.3633C26.5416 18.3843 25.1396 20.7621 23.484 22.4583C21.84 24.1426 19.8935 25.2126 18.6356 25.641C18.3825 25.7284 18.1051 25.7584 17.8674 25.7584C17.6301 25.7584 17.3531 25.7285 17.1002 25.6413C16.1117 25.3073 14.7095 24.5772 13.3729 23.4848C13.1624 23.5278 12.9471 23.5446 12.7516 23.5446C12.4573 23.5446 12.118 23.5065 11.8182 23.3984C10.1832 22.8349 7.62499 21.431 5.46245 19.2166C3.28617 16.9881 1.45825 13.881 1.45825 9.93835C1.45825 6.23969 4.43542 3.2417 8.11991 3.2417C9.92487 3.2417 11.5586 3.95536 12.7541 5.11776C13.9544 3.95687 15.5856 3.2417 17.3832 3.2417C21.0677 3.2417 24.0449 6.23969 24.0449 9.93835C24.0449 10.2524 24.0317 10.561 24.0079 10.8616ZM13.1911 21.7171C13.1922 21.7166 13.1924 21.7166 13.1915 21.7169L13.1911 21.7171Z"/>
</svg>
