<svg id="mail-glass" viewBox="0 0 89 89" fill="none" xmlns="http://www.w3.org/2000/svg">
	<path d="M54.0877 17.0567C51.1765 15.3718 47.7135 14.926 44.4706 15.7949L20.5803 22.1963C13.8067 24.0113 9.80818 30.9404 11.616 37.6875L16.7351 56.7919C18.5429 63.539 25.4945 67.534 32.2439 65.7255L56.1342 59.3242C62.8836 57.5156 66.9087 50.5794 65.1009 43.8324L59.9818 24.7279C59.1135 21.4874 57 18.736 54.0877 17.0567Z" fill="url(#paint0_linear_479_6683)"/>
	<path opacity="0.32" d="M54.0877 17.0567C51.1765 15.3718 47.7135 14.926 44.4706 15.7949L20.5803 22.1963C13.8067 24.0113 9.80818 30.9404 11.616 37.6875L16.7351 56.7919C18.5429 63.539 25.4945 67.534 32.2439 65.7255L56.1342 59.3242C62.8836 57.5156 66.9087 50.5794 65.1009 43.8324L59.9818 24.7279C59.1135 21.4874 57 18.736 54.0877 17.0567Z" fill="url(#paint1_linear_479_6683)"/>
	<g filter="url(#filter0_f_479_6683)">
		<path d="M47.4706 23.3398C45.6338 22.2136 43.4615 21.8937 41.4377 22.436L26.5287 26.4309C22.3015 27.5636 19.8538 32.0654 21.0408 36.4953L24.4018 49.0387C25.5887 53.4685 29.9745 56.1394 34.1866 55.0107L49.0957 51.0159C53.3077 49.8873 55.7721 45.381 54.5851 40.9511L51.2241 28.4077C50.654 26.2801 49.3081 24.4625 47.4706 23.3398Z" fill="#FFCD4F"/>
	</g>
	<g filter="url(#filter1_b_479_6683)">
		<path d="M76.5177 29.6566C73.8658 26.9991 70.261 25.5181 66.5137 25.5181H38.9078C31.0806 25.5181 24.768 31.8334 24.768 39.6298V61.7057C24.768 69.5021 31.1086 75.8175 38.9078 75.8175H66.5137C74.3129 75.8175 80.6562 69.5021 80.6562 61.7057V39.6298C80.6562 35.8853 79.1724 32.3085 76.5177 29.6566Z" fill="#FBDE96" fill-opacity="0.5"/>
	</g>
	<g filter="url(#filter2_bd_479_6683)">
		<path d="M71.1834 43.57L70.9599 43.7935L58.3543 53.8813C56.7922 55.1109 54.8613 55.7815 52.88 55.7815C50.8932 55.7815 48.9958 55.1109 47.4309 53.8813L34.7164 43.9612L34.3503 43.5979C33.7104 42.7596 33.7942 41.558 34.5487 40.8035C35.2724 40.049 36.474 39.9652 37.3431 40.6079L49.918 50.6678C51.5639 52.0119 53.886 52.0119 55.5068 50.6678L68.1068 40.6079C68.5287 40.2167 69.0876 40.0183 69.6744 40.049C70.2305 40.1049 70.7643 40.3592 71.1527 40.7755C71.8513 41.5859 71.8513 42.7596 71.1834 43.57Z" fill="url(#paint2_linear_479_6683)"/>
	</g>
	<defs>
		<filter id="filter0_f_479_6683" x="4.74142" y="6.17822" width="66.1418" height="65.0913" filterUnits="userSpaceOnUse" color-interpolation-filters="sRGB">
			<feFlood flood-opacity="0" result="BackgroundImageFix"/>
			<feBlend mode="normal" in="SourceGraphic" in2="BackgroundImageFix" result="shape"/>
			<feGaussianBlur stdDeviation="8" result="effect1_foregroundBlur_479_6683"/>
		</filter>
		<filter id="filter1_b_479_6683" x="9.76804" y="10.5181" width="85.8882" height="80.2993" filterUnits="userSpaceOnUse" color-interpolation-filters="sRGB">
			<feFlood flood-opacity="0" result="BackgroundImageFix"/>
			<feGaussianBlur in="BackgroundImageFix" stdDeviation="7.5"/>
			<feComposite in2="SourceAlpha" operator="in" result="effect1_backgroundBlur_479_6683"/>
			<feBlend mode="normal" in="SourceGraphic" in2="effect1_backgroundBlur_479_6683" result="shape"/>
		</filter>
		<filter id="filter2_bd_479_6683" x="18.9212" y="25.0459" width="67.7593" height="45.7358" filterUnits="userSpaceOnUse" color-interpolation-filters="sRGB">
			<feFlood flood-opacity="0" result="BackgroundImageFix"/>
			<feGaussianBlur in="BackgroundImageFix" stdDeviation="7.5"/>
			<feComposite in2="SourceAlpha" operator="in" result="effect1_backgroundBlur_479_6683"/>
			<feColorMatrix in="SourceAlpha" type="matrix" values="0 0 0 0 0 0 0 0 0 0 0 0 0 0 0 0 0 0 127 0" result="hardAlpha"/>
			<feOffset dx="5" dy="5"/>
			<feGaussianBlur stdDeviation="5"/>
			<feColorMatrix type="matrix" values="0 0 0 0 1 0 0 0 0 0.337255 0 0 0 0 0.188235 0 0 0 0.5 0"/>
			<feBlend mode="normal" in2="effect1_backgroundBlur_479_6683" result="effect2_dropShadow_479_6683"/>
			<feBlend mode="normal" in="SourceGraphic" in2="effect2_dropShadow_479_6683" result="shape"/>
		</filter>
		<linearGradient id="paint0_linear_479_6683" x1="8.34375" y1="25.4751" x2="64.5204" y2="61.9745" gradientUnits="userSpaceOnUse">
			<stop stop-color="#FFC83E"/>
			<stop offset="1" stop-color="#FEC127"/>
		</linearGradient>
		<linearGradient id="paint1_linear_479_6683" x1="8.34375" y1="25.4751" x2="64.5204" y2="61.9745" gradientUnits="userSpaceOnUse">
			<stop stop-color="#FFBF1E"/>
			<stop offset="1" stop-color="#E0A616"/>
		</linearGradient>
		<linearGradient id="paint2_linear_479_6683" x1="69.0034" y1="42.8874" x2="27.1546" y2="46.1616" gradientUnits="userSpaceOnUse">
			<stop stop-color="white"/>
			<stop offset="1" stop-color="white" stop-opacity="0.2"/>
		</linearGradient>
	</defs>
</svg>
