<svg id="menu" viewBox="0 0 32 32" xmlns="http://www.w3.org/2000/svg">
    <path d="M29 8C29 7.44772 28.5523 7 28 7H4C3.44772 7 3 7.44772 3 8C3 8.55228 3.44772 9 4 9H28C28.5523 9 29 8.55228 29 8Z"/>
    <path d="M29 16C29 15.4477 28.5523 15 28 15H17.3333C16.781 15 16.3333 15.4477 16.3333 16C16.3333 16.5523 16.781 17 17.3333 17H28C28.5523 17 29 16.5523 29 16Z"/>
    <path d="M28 23C28.5523 23 29 23.4477 29 24C29 24.5523 28.5523 25 28 25H10.6667C10.1144 25 9.66667 24.5523 9.66667 24C9.66667 23.4477 10.1144 23 10.6667 23H28Z"/>
</svg>