<svg id="printer" viewBox="0 0 20 20" xmlns="http://www.w3.org/2000/svg">
	<path d="M5.83333 8.54169C5.48816 8.54169 5.20833 8.82151 5.20833 9.16669C5.20833 9.51186 5.48816 9.79169 5.83333 9.79169H8.33333C8.67851 9.79169 8.95833 9.51186 8.95833 9.16669C8.95833 8.82151 8.67851 8.54169 8.33333 8.54169H5.83333Z"/>
	<path fill-rule="evenodd" clip-rule="evenodd" d="M6.13258 1.86422C6.69439 1.26496 7.52832 1.04169 8.54167 1.04169H11.4583C12.4717 1.04169 13.3056 1.26496 13.8674 1.86422C14.4212 2.4549 14.5833 3.27805 14.5833 4.16669V5.20835H15C15.9297 5.20835 16.7417 5.4412 17.3169 6.01641C17.8922 6.59163 18.125 7.40368 18.125 8.33335V12.5C18.125 13.4297 17.8922 14.2417 17.3169 14.817C16.7417 15.3922 15.9297 15.625 15 15.625H13.9583V15.8334C13.9583 16.763 13.7255 17.5751 13.1503 18.1503C12.5751 18.7255 11.763 18.9584 10.8333 18.9584H9.16667C8.23699 18.9584 7.42494 18.7255 6.84972 18.1503C6.27451 17.5751 6.04167 16.763 6.04167 15.8334V15.625H5C4.07033 15.625 3.25827 15.3922 2.68306 14.817C2.10784 14.2417 1.875 13.4297 1.875 12.5V8.33335C1.875 7.40368 2.10784 6.59163 2.68306 6.01641C3.25827 5.4412 4.07033 5.20835 5 5.20835H5.41667V4.16669C5.41667 3.27805 5.57882 2.4549 6.13258 1.86422ZM6.66667 5.20835H13.3333V4.16669C13.3333 3.38866 13.183 2.9618 12.9555 2.71915C12.7361 2.48508 12.32 2.29169 11.4583 2.29169H8.54167C7.68001 2.29169 7.26394 2.48508 7.0445 2.71915C6.81701 2.9618 6.66667 3.38866 6.66667 4.16669V5.20835ZM6.04167 14.375V13.125H5.83333C5.48816 13.125 5.20833 12.8452 5.20833 12.5C5.20833 12.1548 5.48816 11.875 5.83333 11.875H14.1667C14.5118 11.875 14.7917 12.1548 14.7917 12.5C14.7917 12.8452 14.5118 13.125 14.1667 13.125H13.9583V14.375H15C15.737 14.375 16.1749 14.1912 16.4331 13.9331C16.6912 13.675 16.875 13.237 16.875 12.5V8.33335C16.875 7.59636 16.6912 7.15841 16.4331 6.9003C16.1749 6.64218 15.737 6.45835 15 6.45835H5C4.26301 6.45835 3.82506 6.64218 3.56694 6.9003C3.30882 7.15841 3.125 7.59636 3.125 8.33335V12.5C3.125 13.237 3.30882 13.675 3.56694 13.9331C3.82506 14.1912 4.26301 14.375 5 14.375H6.04167ZM7.29167 13.125H12.7083V15.8334C12.7083 16.5703 12.5245 17.0083 12.2664 17.2664C12.0083 17.5245 11.5703 17.7084 10.8333 17.7084H9.16667C8.42967 17.7084 7.99172 17.5245 7.73361 17.2664C7.47549 17.0083 7.29167 16.5703 7.29167 15.8334V13.125Z"/>
</svg>