<svg id="search" viewBox="0 0 16 16" xmlns="http://www.w3.org/2000/svg">
	<path fill-rule="evenodd" clip-rule="evenodd" d="M7.3335 0.833313C3.74365 0.833313 0.833496 3.74346 0.833496 7.33331C0.833496 10.9232 3.74365 13.8333 7.3335 13.8333C8.94844 13.8333 10.4258 13.2444 11.5626 12.2695L13.6466 14.3535C13.8419 14.5488 14.1585 14.5488 14.3537 14.3535C14.549 14.1583 14.549 13.8417 14.3537 13.6464L12.2697 11.5624C13.2445 10.4257 13.8335 8.94826 13.8335 7.33331C13.8335 3.74346 10.9233 0.833313 7.3335 0.833313ZM1.8335 7.33331C1.8335 4.29575 4.29593 1.83331 7.3335 1.83331C10.3711 1.83331 12.8335 4.29575 12.8335 7.33331C12.8335 10.3709 10.3711 12.8333 7.3335 12.8333C4.29593 12.8333 1.8335 10.3709 1.8335 7.33331Z"/>
</svg>