<svg id="share" viewBox="0 0 20 20" xmlns="http://www.w3.org/2000/svg">
	<path fill-rule="evenodd" clip-rule="evenodd" d="M12.6798 3.0211C11.8889 3.81199 11.6249 4.93023 11.8878 5.93968L7.55097 8.10808C7.47992 8.01893 7.40313 7.93284 7.32061 7.85032C6.13338 6.66309 4.20851 6.66309 3.02128 7.85032C1.83405 9.03755 1.83405 10.9624 3.02128 12.1496C4.20851 13.3369 6.13338 13.3369 7.32061 12.1496C7.40311 12.0671 7.47988 11.9811 7.55092 11.8919L11.8878 14.0604C11.6249 15.0698 11.889 16.188 12.6798 16.9789C13.8671 18.1661 15.7919 18.1661 16.9792 16.9789C18.1664 15.7917 18.1664 13.8668 16.9792 12.6796C15.7919 11.4924 13.8671 11.4924 12.6798 12.6796C12.5959 12.7635 12.5179 12.8511 12.4459 12.9419L8.11121 10.7746C8.2443 10.2674 8.2443 9.73262 8.11123 9.22549L12.4459 7.05816C12.5179 7.14892 12.5959 7.23652 12.6798 7.32043C13.8671 8.50766 15.7919 8.50766 16.9792 7.32043C18.1664 6.1332 18.1664 4.20833 16.9792 3.0211C15.7919 1.83387 13.8671 1.83387 12.6798 3.0211ZM16.0953 3.90498C15.3962 3.20591 14.2628 3.20591 13.5637 3.90498C13.034 4.43468 12.9057 5.21375 13.1787 5.86429C13.2016 5.89455 13.2221 5.92734 13.2396 5.96251C13.2574 5.9981 13.2715 6.03458 13.282 6.0715C13.3581 6.20192 13.452 6.32478 13.5637 6.43654C14.2628 7.13562 15.3962 7.13562 16.0953 6.43654C16.7944 5.73747 16.7944 4.60405 16.0953 3.90498ZM6.81541 10.7084C7.00954 10.2574 7.00957 9.7428 6.81549 9.29176C6.79511 9.26386 6.77677 9.23388 6.7608 9.20193C6.74507 9.17049 6.73225 9.13835 6.72223 9.10582C6.64553 8.97296 6.55037 8.84784 6.43673 8.7342C5.73765 8.03513 4.60424 8.03513 3.90516 8.7342C3.20609 9.43328 3.20609 10.5667 3.90516 11.2658C4.60424 11.9648 5.73765 11.9648 6.43673 11.2658C6.55039 11.1521 6.64557 11.027 6.72228 10.8941C6.73229 10.8616 6.7451 10.8295 6.7608 10.7981C6.77675 10.7662 6.79506 10.7363 6.81541 10.7084ZM13.1787 14.1358C13.2016 14.1055 13.2221 14.0727 13.2396 14.0375C13.2575 14.0019 13.2715 13.9654 13.2821 13.9285C13.3581 13.7981 13.452 13.6752 13.5637 13.5635C14.2628 12.8644 15.3962 12.8644 16.0953 13.5635C16.7944 14.2625 16.7944 15.396 16.0953 16.095C15.3962 16.7941 14.2628 16.7941 13.5637 16.095C13.034 15.5654 12.9057 14.7863 13.1787 14.1358Z"/>
</svg>