<svg id="soc-yt" viewBox="0 0 20 15" xmlns="http://www.w3.org/2000/svg">
	<path fill-rule="evenodd" clip-rule="evenodd" d="M17.5012 0.811899C18.3274 1.0386 18.978 1.70656 19.1988 2.55482C19.6 4.09218 19.6 7.2999 19.6 7.2999C19.6 7.2999 19.6 10.5075 19.1988 12.045C18.978 12.8932 18.3274 13.5612 17.5012 13.788C16.0041 14.1999 10 14.1999 10 14.1999C10 14.1999 3.99599 14.1999 2.49871 13.788C1.67257 13.5612 1.02195 12.8932 0.801152 12.045C0.400024 10.5075 0.400024 7.2999 0.400024 7.2999C0.400024 7.2999 0.400024 4.09218 0.801152 2.55482C1.02195 1.70656 1.67257 1.0386 2.49871 0.811899C3.99599 0.399902 10 0.399902 10 0.399902C10 0.399902 16.0041 0.399902 17.5012 0.811899ZM8.20003 10.5999V4.59988L13 7.6L8.20003 10.5999Z"/>
</svg>
