<svg id="soc-vk" viewBox="0 0 33 32" xmlns="http://www.w3.org/2000/svg">
	<path fill-rule="evenodd" clip-rule="evenodd" d="M4.2002 0C1.99106 0 0.200195 1.79086 0.200195 4V28C0.200195 30.2091 1.99106 32 4.2002 32H28.2002C30.4093 32 32.2002 30.2091 32.2002 28V4C32.2002 1.79086 30.4093 0 28.2002 0H4.2002ZM17.5029 21.0508C17.3452 21.2171 17.0372 21.2507 17.0372 21.2507H16.0171C16.0171 21.2507 13.7667 21.3835 11.7842 19.358C9.62225 17.1481 7.71322 12.7637 7.71322 12.7637C7.71322 12.7637 7.60304 12.4761 7.7224 12.3376C7.8568 12.1811 8.22324 12.1713 8.22324 12.1713L10.6615 12.1557C10.6615 12.1557 10.891 12.1926 11.0555 12.3114C11.1915 12.4097 11.2675 12.5924 11.2675 12.5924C11.2675 12.5924 11.6615 13.5708 12.1832 14.4557C13.2024 16.1837 13.6765 16.5615 14.0221 16.3763C14.5263 16.1067 14.3752 13.9338 14.3752 13.9338C14.3752 13.9338 14.3844 13.1455 14.1215 12.794C13.9178 12.522 13.5338 12.4425 13.3644 12.4204C13.2266 12.4024 13.452 12.0894 13.7442 11.9492C14.1832 11.7387 14.9579 11.7264 15.8736 11.7354C16.5872 11.7428 16.7926 11.7862 17.0714 11.8526C17.7185 12.0058 17.6983 12.497 17.6547 13.5571C17.6416 13.8742 17.6265 14.2421 17.6265 14.6671C17.6265 14.7626 17.6237 14.8644 17.6207 14.9691C17.6056 15.5122 17.5883 16.1342 17.9529 16.3656C18.1399 16.4836 18.5964 16.3828 19.7392 14.4786C20.2809 13.5757 20.6866 12.5146 20.6866 12.5146C20.6866 12.5146 20.7759 12.3253 20.9137 12.2442C21.0547 12.1615 21.2451 12.1869 21.2451 12.1869L23.811 12.1713C23.811 12.1713 24.5823 12.0803 24.7067 12.4228C24.8377 12.7809 24.4187 13.6183 23.3703 14.9899C22.3758 16.2914 21.8918 16.7706 21.9362 17.1943C21.9687 17.504 22.2833 17.7841 22.887 18.3338C24.1472 19.4823 24.485 20.0866 24.5662 20.2318C24.5729 20.2438 24.5779 20.2527 24.5815 20.2585C25.1466 21.1786 23.9546 21.2507 23.9546 21.2507L21.6749 21.2819C21.6749 21.2819 21.1858 21.3769 20.5414 20.9426C20.2038 20.7154 19.8739 20.3441 19.5598 19.9905C19.08 19.4506 18.6367 18.9517 18.2584 19.0696C17.6232 19.2678 17.6423 20.6108 17.6423 20.6108C17.6423 20.6108 17.6474 20.8984 17.5029 21.0508Z"/>
</svg>