<svg id="soc-tg" viewBox="0 0 14 12" xmlns="http://www.w3.org/2000/svg">
	<path fill-rule="evenodd" clip-rule="evenodd" d="M4.03575 3.9007C2.83366 4.42555 1.59853 4.96483 0.469119 5.58692C-0.120623 6.0187 0.663185 6.32419 1.39852 6.61068C1.51543 6.65623 1.6311 6.70129 1.73984 6.74631C1.83032 6.77412 1.92234 6.80344 2.01559 6.83314C2.83342 7.0937 3.74536 7.38424 4.53934 6.94719C5.84362 6.19795 7.07449 5.33173 8.30442 4.46617C8.70738 4.18259 9.11023 3.89909 9.51554 3.61978C9.53452 3.60764 9.55596 3.59374 9.57937 3.57857C9.92466 3.35474 10.7012 2.85139 10.414 3.54497C9.73472 4.28777 9.0072 4.94531 8.27572 5.60643C7.78274 6.05198 7.28797 6.49917 6.80496 6.97517C6.38427 7.31697 5.94746 8.00434 6.41851 8.48297C7.50344 9.2425 8.60533 9.9836 9.70658 10.7243C10.065 10.9653 10.4233 11.2063 10.7809 11.4479C11.387 11.9318 12.3342 11.5404 12.4675 10.7842C12.5268 10.4363 12.5863 10.0884 12.6458 9.74053C12.9746 7.81823 13.3035 5.89525 13.594 3.96668C13.6335 3.66417 13.6783 3.36167 13.723 3.05901C13.8316 2.32545 13.9403 1.59099 13.9742 0.853478C13.8867 0.117508 12.9944 0.279328 12.4977 0.444818C9.94512 1.41612 7.41802 2.45942 4.90092 3.52112C4.61578 3.64745 4.32673 3.77365 4.03575 3.9007Z"/>
</svg>
