<svg id="soc-vk" viewBox="0 0 25 15" xmlns="http://www.w3.org/2000/svg">
	<path fill-rule="evenodd" clip-rule="evenodd" d="M23.6081 0.357436C24.3956 0.357436 24.5735 0.763928 24.3956 1.32285C24.1181 2.60381 21.8133 6.00172 21.0994 7.05416C20.9638 7.25414 20.8856 7.36943 20.8896 7.36943C20.6102 7.82674 20.5085 8.02999 20.8896 8.5381C21.0274 8.72597 21.3195 9.01262 21.6534 9.34023C21.9968 9.67718 22.3843 10.0574 22.6934 10.4181C23.8113 11.6884 24.6751 12.7555 24.9037 13.4922C25.107 14.229 24.7513 14.6101 23.9891 14.6101H21.3723C20.6789 14.6101 20.3214 14.2118 19.5596 13.3631C19.2329 12.9991 18.8319 12.5524 18.2982 12.0187C16.7485 10.5198 16.0625 10.3165 15.6814 10.3165C15.1479 10.3165 14.9955 10.4435 14.9955 11.2057V13.5684C14.9955 14.2036 14.7922 14.5847 13.1155 14.5847C10.3462 14.5847 7.27213 12.9079 5.11264 9.78298C1.8607 5.20994 0.971497 1.75475 0.971497 1.0688C0.971497 0.687711 1.09853 0.332031 1.8607 0.332031H4.5029C5.16345 0.332031 5.41751 0.611495 5.67157 1.34826C6.96726 5.08291 9.12675 8.36026 10.016 8.36026C10.3462 8.36026 10.4987 8.20782 10.4987 7.36943V3.50775C10.4359 2.41011 10.0538 1.93187 9.7705 1.57724C9.59477 1.3573 9.45703 1.1849 9.45703 0.941769C9.45703 0.636899 9.71109 0.332031 10.1176 0.332031H14.2333C14.7922 0.332031 14.9955 0.6369 14.9955 1.29745V6.50564C14.9955 7.06456 15.2241 7.26781 15.402 7.26781C15.7323 7.26781 16.0117 7.06456 16.6215 6.45482C18.5015 4.34614 19.848 1.0942 19.848 1.0942C20.0258 0.713118 20.3307 0.357436 20.9913 0.357436H23.6081Z"/>
</svg>
