<svg id="soc-wa" viewBox="0 0 13 13" xmlns="http://www.w3.org/2000/svg">
    <path d="M6.5 0.25C9.95178 0.25 12.75 3.04822 12.75 6.5C12.75 9.95178 9.95178 12.75 6.5 12.75C5.31905 12.75 4.21254 12.4219 3.26953 11.8516C3.25185 11.8578 2.65876 12.0652 1.375 12.4092C0.0715854 12.7584 0.241579 12.9284 0.59082 11.625C0.935404 10.339 1.14297 9.74607 1.14844 9.73047C0.57812 8.78742 0.25 7.68101 0.25 6.5C0.25 3.04827 3.04829 0.250086 6.5 0.25ZM5.11621 3.53711C4.98704 3.44289 4.82338 3.43144 4.68848 3.48926C4.18786 3.70381 3.81674 4.14058 3.68457 4.66895L3.67969 4.6875C3.65599 4.78231 3.63614 4.89463 3.64062 5.0166C3.65633 5.4429 3.82294 6.65008 5.08691 7.91406C6.35088 9.17788 7.55818 9.34467 7.98438 9.36035C8.10605 9.36477 8.21787 9.34493 8.3125 9.32129L8.33496 9.31543C8.86125 9.18373 9.29605 8.81311 9.50977 8.31445C9.56975 8.17408 9.5547 8.00517 9.4541 7.87598C9.12093 7.4493 8.6729 7.14041 8.27539 6.86621C8.24877 6.84785 8.22241 6.8296 8.19629 6.81152C8.00091 6.6763 7.7319 6.71774 7.58789 6.90918L7.25586 7.41406C7.18921 7.51552 7.05643 7.55044 6.95215 7.48828C6.70336 7.33994 6.37387 7.11215 6.13086 6.86914C5.88787 6.62609 5.673 6.31014 5.53809 6.07617C5.4812 5.97751 5.51124 5.85415 5.60254 5.78613L6.12109 5.40137C6.29312 5.25236 6.32297 4.9988 6.19629 4.81348C6.16872 4.77315 6.14086 4.73165 6.1123 4.68945C5.85037 4.30232 5.54248 3.84812 5.11621 3.53711Z"/>
</svg>