<svg id="soc-pt" viewBox="0 0 24 30" xmlns="http://www.w3.org/2000/svg">
	<path d="M5.33215 24.9849C5.16183 26.6529 5.16214 28.3334 5.33256 30.0001H6.31973C6.53528 29.7664 6.72595 29.5095 6.88796 29.2333C7.68386 27.9043 8.32444 26.4884 8.79726 25.0132C9.11549 23.9366 10.1055 20.443 10.1055 20.443C10.6165 21.0237 11.2409 21.4938 11.9402 21.8243C12.6394 22.1547 13.3989 22.3387 14.1719 22.3648C15.3192 22.4076 16.4617 22.1947 17.5166 21.7415C18.5715 21.2884 19.5124 20.6063 20.2712 19.7447C22.3401 17.4459 23.4697 14.4536 23.4359 11.3611C23.5127 10.0066 23.3108 8.65077 22.8424 7.37751C22.3741 6.10424 21.6493 4.94063 20.7132 3.95869C19.694 2.89072 18.4633 2.04725 17.0994 1.48222C15.7356 0.917203 14.2687 0.643099 12.7928 0.6774C10.0275 0.576822 7.30416 1.37583 5.03153 2.95451C3.23282 4.29767 1.83348 6.10478 0.983072 8.18233C0.303237 10.263 0.284657 12.5031 0.929982 14.5947C1.36365 15.9742 2.28 17.1511 3.51112 17.9096C4.23598 18.3763 4.69577 17.9679 4.74881 17.7646C4.76154 17.7158 4.78955 17.615 4.82575 17.4846C4.94035 17.072 5.13705 16.3637 5.1908 16.0762C5.07916 15.5002 4.80975 14.9666 4.41279 14.5346C3.90973 13.5457 3.68951 12.4371 3.77635 11.3311C3.91829 9.15656 4.90886 7.12482 6.53445 5.6736C8.06617 4.31107 10.0536 3.57351 12.1033 3.60691C13.1822 3.58659 14.2536 3.79129 15.249 4.20801C16.2444 4.62473 17.1419 5.2443 17.8845 6.02721C18.838 7.34258 19.3123 8.94485 19.2282 10.5673C19.2267 12.6033 18.7675 14.6129 17.8845 16.4475C17.5444 17.2814 16.979 18.0041 16.2515 18.5349C15.524 19.0657 14.6632 19.3836 13.7653 19.453C13.0864 19.4569 12.4334 19.1935 11.9471 18.7198C11.4608 18.2461 11.1804 17.6 11.1665 16.9213C11.3118 15.3902 11.6503 13.8838 12.1741 12.4378C12.1965 12.3469 12.2269 12.236 12.2616 12.1092L12.2616 12.1092C12.5825 10.9365 13.2767 8.39982 11.5377 7.66432C11.1502 7.49903 10.7321 7.41827 10.311 7.42747C9.88987 7.43667 9.47557 7.53563 9.09573 7.71768C8.7159 7.89974 8.37912 8.16073 8.10817 8.48323C7.83722 8.80573 7.63822 9.18233 7.52439 9.58787C7.0842 11.0156 7.0842 12.5429 7.52439 13.9706C7.61977 14.2305 7.65964 14.5074 7.64136 14.7836C7.62309 15.0598 7.54721 15.3291 7.41843 15.5741C7.22395 15.9436 6.32211 19.7907 5.8978 21.9865C5.62655 22.9686 5.43741 23.9715 5.33215 24.9849Z"/>
</svg>
