<svg id="stack" viewBox="0 0 28 29" xmlns="http://www.w3.org/2000/svg">
	<path fill-rule="evenodd" clip-rule="evenodd" d="M13.755 4.51929C13.321 4.51929 12.9354 4.59517 12.6892 4.70539L12.6868 4.70649L5.80152 7.76401C4.89775 8.16273 4.83583 8.52347 4.83583 8.56179C4.83583 8.60011 4.89775 8.96085 5.80152 9.35957L5.80345 9.36042L12.6892 12.4182C12.9354 12.5284 13.321 12.6043 13.755 12.6043C14.189 12.6043 14.5746 12.5284 14.8208 12.4182L14.8232 12.4171L21.7065 9.36042L21.7085 9.35957C22.6122 8.96085 22.6742 8.60011 22.6742 8.56179C22.6742 8.52347 22.6122 8.16273 21.7085 7.76401L14.8232 4.70648L14.8208 4.70539C14.5746 4.59517 14.189 4.51929 13.755 4.51929ZM15.5346 3.1076C14.9994 2.86825 14.353 2.76929 13.755 2.76929C13.157 2.76929 12.5106 2.86825 11.9754 3.1076C11.975 3.1078 11.9745 3.10799 11.9741 3.10819L5.09515 6.1629C5.09484 6.16304 5.09546 6.16276 5.09515 6.1629C4.01597 6.63923 3.08583 7.4396 3.08583 8.56179C3.08583 9.68394 4.01499 10.4839 5.09412 10.9602C5.09378 10.9601 5.09446 10.9604 5.09412 10.9602L11.9741 14.0154C11.9746 14.0156 11.9751 14.0158 11.9756 14.0161C12.5108 14.2553 13.157 14.3543 13.755 14.3543C14.353 14.3543 14.9993 14.2553 15.5345 14.016C15.535 14.0158 15.5354 14.0156 15.5359 14.0154L22.4149 10.9607C22.4145 10.9608 22.4152 10.9605 22.4149 10.9607C23.494 10.4843 24.4242 9.68398 24.4242 8.56179C24.4242 7.43956 23.4949 6.63958 22.4157 6.16326C22.4154 6.16314 22.4159 6.16338 22.4157 6.16326L15.5359 3.10819C15.5355 3.10799 15.535 3.1078 15.5346 3.1076ZM3.5 12.4585C3.98325 12.4585 4.375 12.8502 4.375 13.3335C4.375 13.6174 4.48733 13.982 4.71321 14.3292C4.93909 14.6763 5.22675 14.9265 5.48677 15.0413L5.48892 15.0423L13.4089 18.5649C13.4087 18.5648 13.4092 18.565 13.4089 18.5649C13.7922 18.7342 14.2214 18.7316 14.5853 18.5675L14.5894 18.5656L22.5111 15.0423L22.5132 15.0413C22.7733 14.9265 23.0609 14.6763 23.2868 14.3292C23.5127 13.982 23.625 13.6174 23.625 13.3335C23.625 12.8502 24.0168 12.4585 24.5 12.4585C24.9832 12.4585 25.375 12.8502 25.375 13.3335C25.375 14.0295 25.1198 14.7207 24.7536 15.2836C24.3876 15.8461 23.8589 16.3599 23.221 16.6418C23.2207 16.642 23.2213 16.6417 23.221 16.6418L15.3047 20.1628C15.304 20.1631 15.3032 20.1634 15.3025 20.1638C14.4771 20.5352 13.5302 20.5321 12.7011 20.1653L4.77989 16.6422C4.77953 16.6421 4.77916 16.6419 4.7788 16.6417C4.14098 16.3598 3.61237 15.8461 3.24637 15.2836C2.88017 14.7207 2.625 14.0295 2.625 13.3335C2.625 12.8502 3.01675 12.4585 3.5 12.4585ZM3.5 18.2918C3.98325 18.2918 4.375 18.6835 4.375 19.1668C4.375 19.9027 4.81008 20.5718 5.48974 20.876C5.48951 20.8759 5.48998 20.8761 5.48974 20.876L13.4089 24.3982C13.4086 24.3981 13.4093 24.3984 13.4089 24.3982C13.7921 24.5674 14.2215 24.5649 14.5853 24.4008L14.5894 24.399L22.5096 20.8763C22.5093 20.8764 22.5098 20.8762 22.5096 20.8763C23.1892 20.5721 23.625 19.9027 23.625 19.1668C23.625 18.6835 24.0168 18.2918 24.5 18.2918C24.9832 18.2918 25.375 18.6835 25.375 19.1668C25.375 20.6006 24.5271 21.8913 23.2238 22.4739L23.2223 22.4746L15.3047 25.9961C15.3038 25.9965 15.303 25.9969 15.3021 25.9973C14.4768 26.3686 13.53 26.3653 12.7011 25.9987L12.6994 25.9979L4.77774 22.4746L4.77622 22.4739C3.47295 21.8913 2.625 20.6006 2.625 19.1668C2.625 18.6835 3.01675 18.2918 3.5 18.2918Z"/>
</svg>
