<svg id="star" viewBox="0 0 18 18" xmlns="http://www.w3.org/2000/svg">
	<path d="M9.88429 0.947566C9.32493 0.682273 8.67599 0.682273 8.11663 0.947565C7.7294 1.13122 7.45475 1.47886 7.21136 1.87177C6.96664 2.26681 6.69816 2.80378 6.36382 3.47247L6.08125 4.03762C5.85199 4.49614 5.78532 4.6163 5.70162 4.70391C5.61528 4.79427 5.51175 4.86646 5.39712 4.91623C5.28598 4.96449 5.15017 4.98551 4.64066 5.04212L4.36669 5.07256C3.56348 5.1618 2.92184 5.23309 2.43607 5.33189C1.95699 5.42934 1.5105 5.57359 1.19796 5.89246C0.750786 6.34869 0.540267 6.98639 0.627926 7.61918C0.689193 8.06146 0.962043 8.44318 1.28895 8.8067C1.62042 9.1753 2.09351 9.61459 2.68572 10.1645L2.96561 10.4244C3.41421 10.841 3.52923 10.9588 3.59367 11.0843C3.6602 11.2138 3.69564 11.3571 3.69717 11.5027C3.69865 11.6436 3.65088 11.8043 3.44544 12.3898L3.43573 12.4175C3.13257 13.2815 2.89244 13.9659 2.75612 14.4982C2.62369 15.0154 2.5495 15.5232 2.72214 15.9629C2.96508 16.5817 3.4914 17.0455 4.13586 17.2086C4.59254 17.3242 5.08265 17.1896 5.57458 16.9955C6.0796 16.7963 6.71908 16.4766 7.52533 16.0735L8.17871 15.7468C8.60142 15.5354 8.71678 15.4834 8.82759 15.4626C8.94184 15.4412 9.05908 15.4412 9.17333 15.4626C9.28414 15.4834 9.39951 15.5354 9.82222 15.7468L10.4756 16.0735C11.2818 16.4766 11.9213 16.7963 12.4263 16.9955C12.9183 17.1896 13.4084 17.3242 13.8651 17.2086C14.5095 17.0455 15.0358 16.5817 15.2788 15.9629C15.4514 15.5232 15.3772 15.0154 15.2448 14.4982C15.1085 13.9659 14.8684 13.2816 14.5652 12.4175L14.5555 12.3898C14.35 11.8043 14.3023 11.6436 14.3037 11.5027C14.3053 11.3571 14.3407 11.2138 14.4072 11.0843C14.4717 10.9588 14.5867 10.841 15.0353 10.4244L15.3152 10.1645C15.9074 9.61457 16.3805 9.17529 16.712 8.8067C17.0389 8.44318 17.3117 8.06146 17.373 7.61918C17.4606 6.98639 17.2501 6.34869 16.803 5.89246C16.4904 5.57359 16.0439 5.42934 15.5648 5.33189C15.0791 5.23309 14.4374 5.1618 13.6342 5.07256L13.3603 5.04212C12.8507 4.98551 12.7149 4.96449 12.6038 4.91623C12.4892 4.86646 12.3856 4.79427 12.2993 4.70391C12.2156 4.6163 12.1489 4.49614 11.9197 4.03761L11.6371 3.47248C11.3028 2.80379 11.0343 2.26682 10.7896 1.87177C10.5462 1.47886 10.2715 1.13122 9.88429 0.947566Z"/>
</svg>