<svg id="strk_document-copy" viewBox="0 0 14 14" fill="none" xmlns="http://www.w3.org/2000/svg">
    <path d="M9.91602 7.81658V9.56658C9.91602 11.8999 8.98268 12.8333 6.64935 12.8333H4.43268C2.09935 12.8333 1.16602 11.8999 1.16602 9.56658V7.34992C1.16602 5.01659 2.09935 4.08325 4.43268 4.08325H6.18268" stroke-linecap="round" stroke-linejoin="round"/>
    <path d="M9.91693 7.81658H8.05026C6.65026 7.81658 6.18359 7.34992 6.18359 5.94992V4.08325L9.91693 7.81658Z" stroke-linecap="round" stroke-linejoin="round"/>
    <path d="M6.76758 1.16675H9.10091" stroke-linecap="round" stroke-linejoin="round"/>
    <path d="M4.08398 2.91675C4.08398 1.94841 4.86565 1.16675 5.83398 1.16675H7.36232" stroke-linecap="round" stroke-linejoin="round"/>
    <path d="M12.8325 4.66675V8.27758C12.8325 9.18175 12.0975 9.91675 11.1934 9.91675" stroke-linecap="round" stroke-linejoin="round"/>
    <path d="M12.834 4.66675H11.084C9.77148 4.66675 9.33398 4.22925 9.33398 2.91675V1.16675L12.834 4.66675Z" stroke-linecap="round" stroke-linejoin="round"/>
</svg>