<svg id="strk_request-instructions" viewBox="0 0 18 18" fill="none" xmlns="http://www.w3.org/2000/svg">
    <path d="M15.375 8.47499V5.28001C15.375 2.25751 14.67 1.5 11.835 1.5H6.165C3.33 1.5 2.625 2.25751 2.625 5.28001V13.725C2.625 15.72 3.72001 16.1925 5.04751 14.7675L5.05499 14.76C5.66999 14.1075 6.60749 14.16 7.13999 14.8725L7.8975 15.885" stroke-linecap="round" stroke-linejoin="round"/>
    <path d="M13.65 16.05C14.9755 16.05 16.05 14.9755 16.05 13.65C16.05 12.3245 14.9755 11.25 13.65 11.25C12.3245 11.25 11.25 12.3245 11.25 13.65C11.25 14.9755 12.3245 16.05 13.65 16.05Z" stroke-linecap="round" stroke-linejoin="round"/>
    <path d="M16.5 16.5L15.75 15.75" stroke-linecap="round" stroke-linejoin="round"/>
    <path d="M6 5.25H12" stroke-linecap="round" stroke-linejoin="round"/>
    <path d="M6.75 8.25H11.25" stroke-linecap="round" stroke-linejoin="round"/>
</svg>