<svg id="strk_inbox" viewBox="0 0 20 20" fill="none" xmlns="http://www.w3.org/2000/svg">
    <path d="M10 1.66675V7.50008L11.6667 5.83341" stroke-width="1.5" stroke-linecap="round" stroke-linejoin="round"/>
    <path d="M10.0007 7.49992L8.33398 5.83325" stroke-width="1.5" stroke-linecap="round" stroke-linejoin="round"/>
    <path d="M1.65039 10.8333H5.32539C5.64206 10.8333 5.92539 11.0083 6.06706 11.2916L7.04206 13.2416C7.32539 13.8083 7.90039 14.1666 8.53372 14.1666H11.4754C12.1087 14.1666 12.6837 13.8083 12.9671 13.2416L13.9421 11.2916C14.0837 11.0083 14.3754 10.8333 14.6837 10.8333H18.3171" stroke-width="1.5" stroke-linecap="round" stroke-linejoin="round"/>
    <path d="M5.83268 3.44165C2.88268 3.87498 1.66602 5.60832 1.66602 9.16665V12.5C1.66602 16.6666 3.33268 18.3333 7.49935 18.3333H12.4993C16.666 18.3333 18.3327 16.6666 18.3327 12.5V9.16665C18.3327 5.60832 17.116 3.87498 14.166 3.44165"  stroke-width="1.5" stroke-linecap="round" stroke-linejoin="round"/>
</svg>