<svg id="strk_request-designers" viewBox="0 0 18 18" fill="none" xmlns="http://www.w3.org/2000/svg">
    <path d="M10.8516 1.5C9.35156 1.5 8.60156 2.25 8.60156 3.75V14.25C8.60156 15.75 9.35156 16.5 10.8516 16.5H13.8516C15.3516 16.5 16.1016 15.75 16.1016 14.25V3.75C16.1016 2.25 15.3516 1.5 13.8516 1.5" stroke-linecap="round"/>
    <path d="M8.60156 4.5H12.3516" stroke-linecap="round"/>
    <path d="M8.60156 13.5H11.6016" stroke-linecap="round"/>
    <path d="M8.60156 10.4624L12.3516 10.4999" stroke-linecap="round"/>
    <path d="M8.60156 7.5H10.8516" stroke-linecap="round"/>
    <path d="M1.89844 6.765V3.7125C1.89844 2.4975 2.89594 1.5 4.11844 1.5C5.33344 1.5 6.33094 2.4975 6.33094 3.7125V13.4325C6.33094 13.77 6.18844 14.28 6.01594 14.5725L5.40094 15.5925C4.69594 16.77 3.53344 16.77 2.82844 15.5925L2.21344 14.5725C2.04094 14.28 1.89844 13.77 1.89844 13.4325V10.4625" stroke-linecap="round"/>
    <path d="M6.33094 5.25H1.89844" stroke-linecap="round"/>
</svg>