<svg id="stroke_lovely" viewBox="0 0 24 25" fill="none" xmlns="http://www.w3.org/2000/svg">
	<path d="M19.86 8.16418C19.86 8.58418 19.83 8.99419 19.78 9.38419C19.32 9.18419 18.82 9.07419 18.29 9.07419C17.07 9.07419 15.99 9.66418 15.32 10.5642C14.64 9.66418 13.56 9.07419 12.34 9.07419C10.29 9.07419 8.63 10.7442 8.63 12.8142C8.63 15.4942 10.05 17.5442 11.63 18.9342C11.58 18.9642 11.53 18.9742 11.48 18.9942C11.18 19.1042 10.68 19.1042 10.38 18.9942C7.79 18.1042 2 14.4242 2 8.16418C2 5.40418 4.21999 3.17419 6.95999 3.17419C8.58999 3.17419 10.03 3.95418 10.93 5.16418C11.84 3.95418 13.28 3.17419 14.9 3.17419C17.64 3.17419 19.86 5.40418 19.86 8.16418Z" stroke-width="1.5" stroke-linecap="round" stroke-linejoin="round"/>
	<path d="M21.9999 12.8142C21.9999 17.4942 17.6699 20.2542 15.7299 20.9142C15.4999 20.9942 15.1299 20.9942 14.8999 20.9142C14.0699 20.6342 12.7999 19.9642 11.6299 18.9342C10.0499 17.5442 8.62988 15.4942 8.62988 12.8142C8.62988 10.7442 10.2899 9.07422 12.3399 9.07422C13.5599 9.07422 14.6399 9.66421 15.3199 10.5642C15.9899 9.66421 17.0699 9.07422 18.2899 9.07422C18.8199 9.07422 19.3199 9.18422 19.7799 9.38422C21.0899 9.96422 21.9999 11.2742 21.9999 12.8142Z" stroke-width="1.5" stroke-linecap="round" stroke-linejoin="round"/>
</svg>