<svg id="stroke_category" viewBox="0 0 21 20" fill="none" xmlns="http://www.w3.org/2000/svg">
    <path d="M4.66699 8.33341H6.33366C8.00033 8.33341 8.83366 7.50008 8.83366 5.83341V4.16675C8.83366 2.50008 8.00033 1.66675 6.33366 1.66675H4.66699C3.00033 1.66675 2.16699 2.50008 2.16699 4.16675V5.83341C2.16699 7.50008 3.00033 8.33341 4.66699 8.33341Z"  stroke-width="1.5" stroke-miterlimit="10" stroke-linecap="round" stroke-linejoin="round"/>
    <path d="M14.667 8.33341H16.3337C18.0003 8.33341 18.8337 7.50008 18.8337 5.83341V4.16675C18.8337 2.50008 18.0003 1.66675 16.3337 1.66675H14.667C13.0003 1.66675 12.167 2.50008 12.167 4.16675V5.83341C12.167 7.50008 13.0003 8.33341 14.667 8.33341Z"  stroke-width="1.5" stroke-miterlimit="10" stroke-linecap="round" stroke-linejoin="round"/>
    <path d="M14.667 18.3334H16.3337C18.0003 18.3334 18.8337 17.5001 18.8337 15.8334V14.1667C18.8337 12.5001 18.0003 11.6667 16.3337 11.6667H14.667C13.0003 11.6667 12.167 12.5001 12.167 14.1667V15.8334C12.167 17.5001 13.0003 18.3334 14.667 18.3334Z"  stroke-width="1.5" stroke-miterlimit="10" stroke-linecap="round" stroke-linejoin="round"/>
    <path d="M4.66699 18.3334H6.33366C8.00033 18.3334 8.83366 17.5001 8.83366 15.8334V14.1667C8.83366 12.5001 8.00033 11.6667 6.33366 11.6667H4.66699C3.00033 11.6667 2.16699 12.5001 2.16699 14.1667V15.8334C2.16699 17.5001 3.00033 18.3334 4.66699 18.3334Z"  stroke-width="1.5" stroke-miterlimit="10" stroke-linecap="round" stroke-linejoin="round"/>
</svg>