<svg id="trash" viewBox="0 0 20 20" xmlns="http://www.w3.org/2000/svg">
    <path d="M9.22983 8.60456C9.22983 8.25938 8.95001 7.97956 8.60483 7.97956C8.25965 7.97956 7.97983 8.25938 7.97983 8.60456V13.4883C7.97983 13.8335 8.25965 14.1133 8.60483 14.1133C8.95001 14.1133 9.22983 13.8335 9.22983 13.4883V8.60456Z" />
    <path d="M11.3955 7.97956C11.7407 7.97956 12.0205 8.25938 12.0205 8.60456V11.3953C12.0205 11.7404 11.7407 12.0203 11.3955 12.0203C11.0504 12.0203 10.7705 11.7404 10.7705 11.3953V8.60456C10.7705 8.25938 11.0504 7.97956 11.3955 7.97956Z" />
    <path fill-rule="evenodd" clip-rule="evenodd" d="M9.11401 2.39816L9.03267 2.39806C8.6818 2.39736 8.34827 2.3967 8.04966 2.51414C7.78925 2.61656 7.55871 2.78272 7.3792 2.99738C7.17335 3.24354 7.06851 3.56015 6.95821 3.89324L6.93259 3.97044L6.75901 4.49119H3.02344C2.67826 4.49119 2.39844 4.77101 2.39844 5.11619C2.39844 5.46136 2.67826 5.74119 3.02344 5.74119H3.82947L4.24685 12.8366C4.28905 13.5541 4.32289 14.1295 4.38756 14.5943C4.45405 15.0722 4.55893 15.4839 4.77075 15.8605C5.11094 16.4653 5.62727 16.9521 6.25101 17.2562C6.63938 17.4456 7.05654 17.5261 7.53751 17.5644C8.00524 17.6017 8.58169 17.6017 9.30042 17.6017H10.6999C11.4186 17.6017 11.9951 17.6017 12.4629 17.5644C12.9438 17.5261 13.361 17.4456 13.7494 17.2562C14.3731 16.9521 14.8894 16.4653 15.2296 15.8605C15.4414 15.4839 15.5463 15.0722 15.6128 14.5943C15.6775 14.1296 15.7113 13.5541 15.7535 12.8366L16.1709 5.74119H16.9769C17.3221 5.74119 17.6019 5.46136 17.6019 5.11619C17.6019 4.77101 17.3221 4.49119 16.9769 4.49119H13.2414L13.0678 3.97044L13.0422 3.89324C12.9319 3.56015 12.827 3.24354 12.6212 2.99738C12.4417 2.78272 12.2111 2.61656 11.9507 2.51414C11.6521 2.3967 11.3186 2.39736 10.9677 2.39806L10.8864 2.39816H9.11401ZM12.7763 5.74119C12.7859 5.74141 12.7956 5.74141 12.8053 5.74119H14.9187L14.5072 12.737C14.4631 13.4867 14.4317 14.0124 14.3747 14.422C14.3188 14.8241 14.244 15.0629 14.1401 15.2477C13.9244 15.6311 13.5971 15.9398 13.2016 16.1326C13.0111 16.2255 12.7683 16.2861 12.3636 16.3183C11.9513 16.3512 11.4247 16.3517 10.6737 16.3517H9.32664C8.5757 16.3517 8.04905 16.3512 7.63678 16.3183C7.23208 16.2861 6.98931 16.2255 6.79878 16.1326C6.4033 15.9398 6.07593 15.6311 5.86023 15.2477C5.75632 15.0629 5.68158 14.8241 5.62563 14.422C5.56863 14.0124 5.53725 13.4867 5.49315 12.737L5.08163 5.74119H7.19508C7.20476 5.74141 7.21443 5.74141 7.22407 5.74119H12.7763ZM11.9237 4.49119L11.8819 4.36573C11.7278 3.90343 11.6951 3.83856 11.6623 3.79927C11.617 3.74514 11.5589 3.70324 11.4932 3.67741C11.4455 3.65867 11.3737 3.64816 10.8864 3.64816H9.11401C8.62671 3.64816 8.55482 3.65867 8.50717 3.67741C8.4415 3.70324 8.38336 3.74514 8.33809 3.79927C8.30524 3.83856 8.27254 3.90343 8.11844 4.36573L8.07662 4.49119H11.9237Z" />
</svg>