<svg id="trash" viewBox="0 0 20 21" xmlns="http://www.w3.org/2000/svg">
    <path d="M9.22983 8.70124C9.22983 8.35606 8.95001 8.07624 8.60483 8.07624C8.25965 8.07624 7.97983 8.35606 7.97983 8.70124V13.585C7.97983 13.9301 8.25965 14.21 8.60483 14.21C8.95001 14.21 9.22983 13.9301 9.22983 13.585V8.70124Z"/>
    <path d="M11.3955 8.07624C11.7407 8.07624 12.0205 8.35606 12.0205 8.70124V11.4919C12.0205 11.8371 11.7407 12.1169 11.3955 12.1169C11.0504 12.1169 10.7705 11.8371 10.7705 11.4919V8.70124C10.7705 8.35606 11.0504 8.07624 11.3955 8.07624Z"/>
    <path fill-rule="evenodd" clip-rule="evenodd" d="M9.11401 2.49484L9.03267 2.49473C8.6818 2.49404 8.34827 2.49338 8.04966 2.61082C7.78925 2.71324 7.55871 2.8794 7.3792 3.09406C7.17335 3.34022 7.06851 3.65683 6.95821 3.98992L6.93259 4.06712L6.75901 4.58787H3.02344C2.67826 4.58787 2.39844 4.86769 2.39844 5.21287C2.39844 5.55804 2.67826 5.83787 3.02344 5.83787H3.82947L4.24685 12.9332C4.28905 13.6508 4.32289 14.2262 4.38756 14.691C4.45405 15.1689 4.55893 15.5806 4.77075 15.9572C5.11094 16.562 5.62727 17.0488 6.25101 17.3529C6.63938 17.5422 7.05654 17.6228 7.53751 17.6611C8.00524 17.6983 8.58169 17.6983 9.30042 17.6983H10.6999C11.4186 17.6983 11.9951 17.6983 12.4629 17.6611C12.9438 17.6228 13.361 17.5422 13.7494 17.3529C14.3731 17.0488 14.8894 16.562 15.2296 15.9572C15.4414 15.5806 15.5463 15.1689 15.6128 14.691C15.6775 14.2262 15.7113 13.6508 15.7535 12.9333L16.1709 5.83787H16.9769C17.3221 5.83787 17.6019 5.55804 17.6019 5.21287C17.6019 4.86769 17.3221 4.58787 16.9769 4.58787H13.2414L13.0678 4.06712L13.0422 3.98992C12.9319 3.65683 12.827 3.34022 12.6212 3.09406C12.4417 2.8794 12.2111 2.71324 11.9507 2.61082C11.6521 2.49338 11.3186 2.49404 10.9677 2.49473L10.8864 2.49484H9.11401ZM12.7763 5.83787C12.7859 5.83809 12.7956 5.83809 12.8053 5.83787H14.9187L14.5072 12.8337C14.4631 13.5834 14.4317 14.1091 14.3747 14.5187C14.3188 14.9208 14.244 15.1596 14.1401 15.3443C13.9244 15.7278 13.5971 16.0365 13.2016 16.2293C13.0111 16.3222 12.7683 16.3828 12.3636 16.415C11.9513 16.4479 11.4247 16.4483 10.6737 16.4483H9.32664C8.5757 16.4483 8.04905 16.4479 7.63678 16.415C7.23208 16.3828 6.98931 16.3222 6.79878 16.2293C6.4033 16.0365 6.07593 15.7278 5.86023 15.3443C5.75632 15.1596 5.68158 14.9208 5.62563 14.5187C5.56863 14.1091 5.53725 13.5834 5.49315 12.8337L5.08163 5.83787H7.19508C7.20476 5.83809 7.21443 5.83809 7.22407 5.83787H12.7763ZM11.9237 4.58787L11.8819 4.46241C11.7278 4.00011 11.6951 3.93524 11.6623 3.89595C11.617 3.84182 11.5589 3.79992 11.4932 3.77409C11.4455 3.75535 11.3737 3.74484 10.8864 3.74484H9.11401C8.62671 3.74484 8.55482 3.75535 8.50717 3.77409C8.4415 3.79992 8.38336 3.84182 8.33809 3.89595C8.30524 3.93524 8.27254 4.00011 8.11844 4.46241L8.07662 4.58787H11.9237Z"/>
</svg>