<svg id="wallet" viewBox="0 0 28 29" xmlns="http://www.w3.org/2000/svg">
	<path d="M8.16675 13.6249C7.6835 13.6249 7.29175 14.0167 7.29175 14.4999C7.29175 14.9832 7.6835 15.3749 8.16675 15.3749H16.3334C16.8167 15.3749 17.2084 14.9832 17.2084 14.4999C17.2084 14.0167 16.8167 13.6249 16.3334 13.6249H8.16675Z"/>
	<path fill-rule="evenodd" clip-rule="evenodd" d="M25.9584 21.7799V21.0887C26.6845 20.7679 27.1937 20.0487 27.1937 19.2018V16.7984C27.1937 15.9516 26.6845 15.2324 25.9584 14.9116V13.9283C25.9584 11.03 23.595 8.66657 20.6967 8.66657H18.2001V5.10827C18.2001 2.94723 16.0387 1.44734 14.0171 2.21318L4.75415 5.71305C3.11726 6.33241 2.04175 7.89625 2.04175 9.64662V21.7799C2.04175 24.6781 4.40516 27.0416 7.30342 27.0416H20.6967C23.595 27.0416 25.9584 24.6781 25.9584 21.7799ZM14.6369 3.84977C15.5085 3.51938 16.4501 4.16616 16.4501 5.10827V8.66657H7.30342C5.95602 8.66657 4.72422 9.17739 3.79175 10.0153V9.64662C3.79175 8.62047 4.41978 7.71083 5.37268 7.35009L14.6369 3.84977ZM3.79175 13.9283V21.7799C3.79175 23.7117 5.37167 25.2916 7.30342 25.2916H20.6967C22.6285 25.2916 24.2084 23.7117 24.2084 21.7799V21.2668H22.8654C21.2209 21.2668 19.6247 20.0643 19.4738 18.2879C19.3796 17.282 19.7626 16.3423 20.4262 15.6901C20.8988 15.2081 21.5102 14.8897 22.1831 14.7779C22.2078 14.7738 22.2326 14.77 22.2575 14.7664C22.4112 14.7445 22.5679 14.7333 22.7267 14.7333H24.2084V13.9283C24.2084 11.9965 22.6285 10.4166 20.6967 10.4166H17.3309L17.3251 10.4166L17.3193 10.4166H7.30342C5.37167 10.4166 3.79175 11.9965 3.79175 13.9283ZM25.1319 19.5168H25.1029L25.0834 19.5166H22.8668C21.9928 19.5166 21.2805 18.878 21.2187 18.1372L21.2178 18.1269C21.1742 17.6688 21.3476 17.2374 21.658 16.9344L21.6737 16.9186C21.8884 16.6981 22.1702 16.5497 22.4914 16.5008C22.5673 16.4894 22.6454 16.4835 22.7254 16.4835H25.1319C25.3205 16.4956 25.4437 16.6431 25.4437 16.7984V19.2018C25.4437 19.3571 25.3205 19.5046 25.1319 19.5168Z"/>
</svg>
